<svg width="579" height="290" viewBox="0 0 579 290" fill="none" xmlns="http://www.w3.org/2000/svg">
<g clip-path="url(#clip0_1046_349)">
<g clip-path="url(#clip1_1046_349)">
<g filter="url(#filter0_d_1046_349)">
<rect width="579" height="290" rx="15" fill="#F6F4F1"/>
<rect x="0.5" y="0.5" width="578" height="289" rx="14.5" stroke="#B8B8B8"/>
</g>
<g filter="url(#filter1_f_1046_349)">
<rect width="122.063" height="3.38332" transform="matrix(0.893571 -0.448921 0.334301 0.942466 62 146.797)" fill="#1C2024"/>
</g>
<g filter="url(#filter2_f_1046_349)">
<rect width="129.017" height="3.39049" transform="matrix(0.90325 -0.429115 0.318013 0.948086 102.872 150.829)" fill="#1C2024"/>
</g>
<g filter="url(#filter3_f_1046_349)">
<rect width="128.706" height="3.39684" transform="matrix(0.911837 -0.410553 0.302955 0.953005 142.134 153.164)" fill="#1C2024"/>
</g>
<g filter="url(#filter4_f_1046_349)">
<rect width="140.653" height="3.40715" transform="matrix(0.925821 -0.377963 0.276964 0.96088 171.04 159.312)" fill="#1C2024"/>
</g>
<g filter="url(#filter5_f_1046_349)">
<rect width="143.401" height="3.41237" transform="matrix(0.932914 -0.360099 0.262939 0.964813 197.391 167.536)" fill="#1C2024"/>
</g>
<g filter="url(#filter6_f_1046_349)">
<rect width="143.123" height="3.41735" transform="matrix(0.939701 -0.341998 0.248875 0.968536 220.656 178.69)" fill="#1C2024"/>
</g>
<g filter="url(#filter7_f_1046_349)">
<rect width="122.675" height="3.36994" transform="matrix(0.875572 -0.483087 0.362983 0.931796 27 145.263)" fill="#1C2024"/>
</g>
<g filter="url(#filter8_f_1046_349)">
<rect width="107.789" height="3.35232" transform="matrix(0.851961 -0.523605 0.398065 0.917357 -19 152.439)" fill="#1C2024"/>
</g>
<g filter="url(#filter9_f_1046_349)">
<rect width="107.789" height="3.35232" transform="matrix(0.851961 -0.523605 0.398065 0.917357 -65 158.439)" fill="#1C2024"/>
</g>
<g filter="url(#filter10_f_1046_349)">
<rect width="131.313" height="4.20679" transform="matrix(0.9424 -0.334488 0.142144 0.989846 249 189.923)" fill="#1C2024"/>
</g>
<rect width="138.485" height="4.21892" transform="matrix(0.950539 -0.310606 0.127561 0.991831 271 202.014)" fill="#1C2024"/>
<rect width="137.884" height="4.22949" transform="matrix(0.957577 -0.288178 0.114148 0.993464 293 217.735)" fill="#1C2024"/>
<rect width="150.227" height="4.24622" transform="matrix(0.968576 -0.248719 0.0911398 0.995838 301 237.364)" fill="#1C2024"/>
<rect width="152.936" height="4.25446" transform="matrix(0.973881 -0.227058 0.0787953 0.996891 296 260.725)" fill="#1C2024"/>
<rect width="152.435" height="4.26215" transform="matrix(0.978742 -0.205096 0.0664627 0.997789 290 284.264)" fill="#1C2024"/>
</g>
<path d="M401.44 130.239C400.372 130.239 399.412 130.034 398.56 129.625C397.713 129.21 397.037 128.642 396.531 127.92C396.026 127.199 395.756 126.375 395.722 125.449H398.278C398.341 126.199 398.673 126.815 399.276 127.298C399.878 127.781 400.599 128.023 401.44 128.023C402.111 128.023 402.705 127.869 403.222 127.562C403.744 127.25 404.153 126.821 404.449 126.276C404.75 125.73 404.901 125.108 404.901 124.409C404.901 123.699 404.747 123.065 404.44 122.509C404.134 121.952 403.71 121.514 403.17 121.196C402.636 120.878 402.023 120.716 401.33 120.71C400.801 120.71 400.27 120.801 399.736 120.983C399.202 121.165 398.77 121.403 398.44 121.699L396.028 121.341L397.009 112.545H406.605V114.804H399.199L398.645 119.688H398.747C399.088 119.358 399.54 119.082 400.102 118.861C400.67 118.639 401.278 118.528 401.926 118.528C402.989 118.528 403.935 118.781 404.764 119.287C405.599 119.793 406.256 120.483 406.733 121.358C407.216 122.227 407.455 123.227 407.449 124.358C407.455 125.489 407.199 126.497 406.682 127.384C406.17 128.27 405.46 128.969 404.551 129.48C403.648 129.986 402.611 130.239 401.44 130.239ZM416.398 130.29C415.052 130.284 413.901 129.929 412.947 129.224C411.992 128.52 411.262 127.494 410.756 126.148C410.251 124.801 409.998 123.179 409.998 121.281C409.998 119.389 410.251 117.773 410.756 116.432C411.268 115.091 412.001 114.068 412.955 113.364C413.916 112.659 415.063 112.307 416.398 112.307C417.734 112.307 418.879 112.662 419.833 113.372C420.788 114.077 421.518 115.099 422.023 116.44C422.535 117.776 422.791 119.389 422.791 121.281C422.791 123.185 422.538 124.81 422.032 126.156C421.526 127.497 420.796 128.523 419.842 129.233C418.887 129.938 417.739 130.29 416.398 130.29ZM416.398 128.014C417.58 128.014 418.504 127.438 419.168 126.284C419.839 125.131 420.174 123.463 420.174 121.281C420.174 119.832 420.021 118.608 419.714 117.608C419.413 116.602 418.978 115.841 418.41 115.324C417.847 114.801 417.177 114.54 416.398 114.54C415.222 114.54 414.299 115.119 413.629 116.278C412.958 117.437 412.62 119.105 412.614 121.281C412.614 122.736 412.765 123.966 413.066 124.972C413.373 125.972 413.808 126.73 414.37 127.247C414.933 127.759 415.609 128.014 416.398 128.014ZM425.608 130V116.909H428.054V119.04H428.216C428.489 118.318 428.935 117.756 429.554 117.352C430.173 116.943 430.915 116.739 431.779 116.739C432.654 116.739 433.386 116.943 433.977 117.352C434.574 117.761 435.014 118.324 435.298 119.04H435.435C435.747 118.341 436.244 117.784 436.926 117.369C437.608 116.949 438.421 116.739 439.364 116.739C440.551 116.739 441.52 117.111 442.27 117.855C443.026 118.599 443.404 119.722 443.404 121.222V130H440.855V121.46C440.855 120.574 440.614 119.932 440.131 119.534C439.648 119.136 439.071 118.938 438.401 118.938C437.571 118.938 436.926 119.193 436.466 119.705C436.006 120.21 435.776 120.861 435.776 121.656V130H433.236V121.298C433.236 120.588 433.014 120.017 432.571 119.585C432.128 119.153 431.551 118.938 430.841 118.938C430.358 118.938 429.912 119.065 429.503 119.321C429.1 119.571 428.773 119.92 428.523 120.369C428.279 120.818 428.156 121.338 428.156 121.929V130H425.608ZM456.389 120.105L454.079 120.514C453.982 120.219 453.829 119.937 453.619 119.67C453.414 119.403 453.136 119.185 452.784 119.014C452.431 118.844 451.991 118.759 451.463 118.759C450.741 118.759 450.139 118.92 449.656 119.244C449.173 119.562 448.931 119.974 448.931 120.48C448.931 120.918 449.093 121.27 449.417 121.537C449.741 121.804 450.264 122.023 450.985 122.193L453.065 122.67C454.269 122.949 455.167 123.378 455.758 123.957C456.349 124.537 456.644 125.29 456.644 126.216C456.644 127 456.417 127.699 455.963 128.312C455.514 128.92 454.886 129.398 454.079 129.744C453.278 130.091 452.349 130.264 451.292 130.264C449.826 130.264 448.63 129.952 447.704 129.327C446.778 128.696 446.21 127.801 445.999 126.642L448.463 126.267C448.616 126.909 448.931 127.395 449.409 127.724C449.886 128.048 450.508 128.21 451.275 128.21C452.11 128.21 452.778 128.037 453.278 127.69C453.778 127.338 454.028 126.909 454.028 126.403C454.028 125.994 453.874 125.651 453.568 125.372C453.267 125.094 452.803 124.884 452.178 124.741L449.963 124.256C448.741 123.977 447.838 123.534 447.252 122.926C446.673 122.318 446.383 121.548 446.383 120.616C446.383 119.844 446.599 119.168 447.031 118.588C447.463 118.009 448.059 117.557 448.82 117.233C449.582 116.903 450.454 116.739 451.437 116.739C452.852 116.739 453.965 117.045 454.778 117.659C455.59 118.267 456.127 119.082 456.389 120.105Z" fill="black"/>
<rect width="152.435" height="4.26215" transform="matrix(0.988958 -0.148197 0.0086954 0.999962 281.345 300.922)" fill="#1C2024"/>
</g>
<defs>
<filter id="filter0_d_1046_349" x="-26" y="-22" width="631" height="342" filterUnits="userSpaceOnUse" color-interpolation-filters="sRGB">
<feFlood flood-opacity="0" result="BackgroundImageFix"/>
<feColorMatrix in="SourceAlpha" type="matrix" values="0 0 0 0 0 0 0 0 0 0 0 0 0 0 0 0 0 0 127 0" result="hardAlpha"/>
<feMorphology radius="2" operator="erode" in="SourceAlpha" result="effect1_dropShadow_1046_349"/>
<feOffset dy="4"/>
<feGaussianBlur stdDeviation="14"/>
<feComposite in2="hardAlpha" operator="out"/>
<feColorMatrix type="matrix" values="0 0 0 0 0 0 0 0 0 0 0 0 0 0 0 0 0 0 0.07 0"/>
<feBlend mode="normal" in2="BackgroundImageFix" result="effect1_dropShadow_1046_349"/>
<feBlend mode="normal" in="SourceGraphic" in2="effect1_dropShadow_1046_349" result="shape"/>
</filter>
<filter id="filter1_f_1046_349" x="59.9" y="89.9" width="114.403" height="62.1856" filterUnits="userSpaceOnUse" color-interpolation-filters="sRGB">
<feFlood flood-opacity="0" result="BackgroundImageFix"/>
<feBlend mode="normal" in="SourceGraphic" in2="BackgroundImageFix" result="shape"/>
<feGaussianBlur stdDeviation="1.05" result="effect1_foregroundBlur_1046_349"/>
</filter>
<filter id="filter2_f_1046_349" x="100.772" y="93.3661" width="121.812" height="62.7774" filterUnits="userSpaceOnUse" color-interpolation-filters="sRGB">
<feFlood flood-opacity="0" result="BackgroundImageFix"/>
<feBlend mode="normal" in="SourceGraphic" in2="BackgroundImageFix" result="shape"/>
<feGaussianBlur stdDeviation="1.05" result="effect1_foregroundBlur_1046_349"/>
</filter>
<filter id="filter3_f_1046_349" x="140.034" y="98.223" width="122.588" height="60.2779" filterUnits="userSpaceOnUse" color-interpolation-filters="sRGB">
<feFlood flood-opacity="0" result="BackgroundImageFix"/>
<feBlend mode="normal" in="SourceGraphic" in2="BackgroundImageFix" result="shape"/>
<feGaussianBlur stdDeviation="1.05" result="effect1_foregroundBlur_1046_349"/>
</filter>
<filter id="filter4_f_1046_349" x="168.94" y="104.051" width="135.363" height="60.6358" filterUnits="userSpaceOnUse" color-interpolation-filters="sRGB">
<feFlood flood-opacity="0" result="BackgroundImageFix"/>
<feBlend mode="normal" in="SourceGraphic" in2="BackgroundImageFix" result="shape"/>
<feGaussianBlur stdDeviation="1.05" result="effect1_foregroundBlur_1046_349"/>
</filter>
<filter id="filter5_f_1046_349" x="195.291" y="113.798" width="138.878" height="59.1307" filterUnits="userSpaceOnUse" color-interpolation-filters="sRGB">
<feFlood flood-opacity="0" result="BackgroundImageFix"/>
<feBlend mode="normal" in="SourceGraphic" in2="BackgroundImageFix" result="shape"/>
<feGaussianBlur stdDeviation="1.05" result="effect1_foregroundBlur_1046_349"/>
</filter>
<filter id="filter6_f_1046_349" x="218.556" y="127.642" width="139.544" height="56.4576" filterUnits="userSpaceOnUse" color-interpolation-filters="sRGB">
<feFlood flood-opacity="0" result="BackgroundImageFix"/>
<feBlend mode="normal" in="SourceGraphic" in2="BackgroundImageFix" result="shape"/>
<feGaussianBlur stdDeviation="1.05" result="effect1_foregroundBlur_1046_349"/>
</filter>
<filter id="filter7_f_1046_349" x="24.9" y="83.9" width="112.834" height="66.6028" filterUnits="userSpaceOnUse" color-interpolation-filters="sRGB">
<feFlood flood-opacity="0" result="BackgroundImageFix"/>
<feBlend mode="normal" in="SourceGraphic" in2="BackgroundImageFix" result="shape"/>
<feGaussianBlur stdDeviation="1.05" result="effect1_foregroundBlur_1046_349"/>
</filter>
<filter id="filter8_f_1046_349" x="-21.1" y="93.9" width="97.367" height="63.7142" filterUnits="userSpaceOnUse" color-interpolation-filters="sRGB">
<feFlood flood-opacity="0" result="BackgroundImageFix"/>
<feBlend mode="normal" in="SourceGraphic" in2="BackgroundImageFix" result="shape"/>
<feGaussianBlur stdDeviation="1.05" result="effect1_foregroundBlur_1046_349"/>
</filter>
<filter id="filter9_f_1046_349" x="-67.1" y="99.9" width="97.367" height="63.7142" filterUnits="userSpaceOnUse" color-interpolation-filters="sRGB">
<feFlood flood-opacity="0" result="BackgroundImageFix"/>
<feBlend mode="normal" in="SourceGraphic" in2="BackgroundImageFix" result="shape"/>
<feGaussianBlur stdDeviation="1.05" result="effect1_foregroundBlur_1046_349"/>
</filter>
<filter id="filter10_f_1046_349" x="246.9" y="143.9" width="128.547" height="52.2867" filterUnits="userSpaceOnUse" color-interpolation-filters="sRGB">
<feFlood flood-opacity="0" result="BackgroundImageFix"/>
<feBlend mode="normal" in="SourceGraphic" in2="BackgroundImageFix" result="shape"/>
<feGaussianBlur stdDeviation="1.05" result="effect1_foregroundBlur_1046_349"/>
</filter>
<clipPath id="clip0_1046_349">
<rect width="579" height="290" fill="white"/>
</clipPath>
<clipPath id="clip1_1046_349">
<rect width="579" height="290" fill="white"/>
</clipPath>
</defs>
</svg>
