<svg width="926" height="634" viewBox="0 0 926 634" fill="none" xmlns="http://www.w3.org/2000/svg">
<path d="M20.35 513.45C15.5833 513.45 12.8333 510.517 12.1 504.65C11.7333 498.783 11.55 489.983 11.55 478.25V471.65C11.55 462.117 11.7333 454.967 12.1 450.2C12.8333 445.433 14.3 441.767 16.5 439.2C19.0667 436.633 22.9167 434.067 28.05 431.5L135.85 379.25L28.05 327C20.35 322.967 15.5833 318.75 13.75 314.35C12.2833 309.583 11.55 300.417 11.55 286.85V280.25C11.55 268.517 11.7333 259.9 12.1 254.4C12.8333 248.533 15.5833 245.6 20.35 245.6C23.65 245.6 28.9667 247.617 36.3 251.65L220 345.15C227.333 348.817 231.733 352.3 233.2 355.6C234.667 358.9 235.4 364.95 235.4 373.75V384.2C235.4 393 234.667 399.05 233.2 402.35C231.733 405.283 227.333 408.767 220 412.8L36.3 507.4C28.9667 511.433 23.65 513.45 20.35 513.45Z" fill="#FD8200"/>
<path d="M442.32 495.14C427.6 495.14 414.413 490.233 402.76 480.42C391.107 470.607 381.753 456.807 374.7 439.02C367.953 420.927 364.58 400.073 364.58 376.46C364.58 352.233 368.107 330.92 375.16 312.52C382.213 294.12 391.873 279.707 404.14 269.28C416.407 258.853 430.053 253.64 445.08 253.64C463.173 253.64 477.74 261.153 488.78 276.18C500.127 290.9 505.8 314.973 505.8 348.4C505.8 358.52 501.967 363.58 494.3 363.58H406.9C400.767 363.58 397.7 367.107 397.7 374.16C397.7 406.667 402.453 431.047 411.96 447.3C421.467 463.553 433.58 471.68 448.3 471.68C459.953 471.68 469.46 467.54 476.82 459.26C484.18 450.98 490.16 437.027 494.76 417.4C495.68 414.027 497.673 412.34 500.74 412.34C504.42 412.34 505.8 415.407 504.88 421.54C499.973 448.833 492.153 468 481.42 479.04C470.687 489.773 457.653 495.14 442.32 495.14ZM405.52 352.08H451.98C466.7 352.08 474.06 344.413 474.06 329.08C474.06 309.147 471.607 293.507 466.7 282.16C461.793 270.813 454.433 265.14 444.62 265.14C432.66 265.14 422.54 272.04 414.26 285.84C406.287 299.64 401.073 319.267 398.62 344.72C398.007 349.627 400.307 352.08 405.52 352.08ZM511.536 585.3C506.936 585.3 504.636 583.613 504.636 580.24C504.636 576.867 506.629 575.027 510.616 574.72L517.056 573.8C523.496 572.88 527.636 571.04 529.476 568.28C531.622 565.52 532.696 560.92 532.696 554.48V305.62C532.696 300.1 531.776 296.42 529.936 294.58C528.402 292.433 525.489 291.053 521.196 290.44L511.536 289.06C507.549 288.753 505.556 287.067 505.556 284C505.556 281.547 508.009 279.86 512.916 278.94C522.422 277.407 529.629 274.953 534.536 271.58C539.749 268.207 545.116 264.067 550.636 259.16C553.396 256.4 555.696 255.02 557.536 255.02C560.296 255.02 561.676 256.86 561.676 260.54V274.8C561.676 276.947 562.596 278.48 564.436 279.4C566.276 280.013 568.422 279.093 570.876 276.64L575.936 271.58C582.069 265.447 588.356 261 594.796 258.24C601.236 255.173 608.596 253.64 616.876 253.64C630.982 253.64 643.402 258.393 654.136 267.9C665.176 277.1 673.762 289.98 679.896 306.54C686.336 323.1 689.556 342.573 689.556 364.96C689.556 390.413 685.569 412.953 677.596 432.58C669.622 452.207 658.582 467.54 644.476 478.58C630.676 489.62 614.729 495.14 596.636 495.14C587.436 495.14 579.309 493.453 572.256 490.08C566.736 487.627 563.976 489.313 563.976 495.14V554.48C563.976 560.92 564.896 565.213 566.736 567.36C568.882 569.813 573.176 571.5 579.616 572.42L596.636 574.72C600.009 575.333 601.696 577.02 601.696 579.78C601.696 583.46 599.396 585.3 594.796 585.3H511.536ZM598.016 483.64C615.189 483.64 628.989 473.52 639.416 453.28C650.149 433.04 655.516 405.747 655.516 371.4C655.516 339.813 650.916 315.74 641.716 299.18C632.516 282.62 619.482 274.34 602.616 274.34C592.189 274.34 583.142 278.633 575.476 287.22C567.809 295.807 563.976 307.767 563.976 323.1V439.02C563.976 452.82 567.042 463.707 573.176 471.68C579.616 479.653 587.896 483.64 598.016 483.64ZM737.55 212.7C731.11 212.7 725.59 210.4 720.99 205.8C716.697 201.2 714.55 195.373 714.55 188.32C714.55 181.267 716.697 175.593 720.99 171.3C725.59 166.7 731.11 164.4 737.55 164.4C743.99 164.4 749.357 166.7 753.65 171.3C757.944 175.593 760.09 181.267 760.09 188.32C760.09 195.373 757.944 201.2 753.65 205.8C749.357 210.4 743.99 212.7 737.55 212.7ZM698.91 491C694.31 491 692.01 489.313 692.01 485.94C692.01 483.18 694.004 481.34 697.99 480.42L703.51 479.5C711.177 478.273 716.084 476.433 718.23 473.98C720.377 471.22 721.45 466.62 721.45 460.18V305.62C721.45 300.1 720.53 296.42 718.69 294.58C717.157 292.433 714.244 291.053 709.95 290.44L700.29 289.06C696.304 288.753 694.31 287.067 694.31 284C694.31 281.547 696.764 279.86 701.67 278.94C711.177 277.407 718.844 274.953 724.67 271.58C730.497 268.207 736.17 264.067 741.69 259.16C744.45 256.4 746.75 255.02 748.59 255.02C751.35 255.02 752.73 256.86 752.73 260.54V460.18C752.73 466.62 753.65 471.22 755.49 473.98C757.33 476.74 760.857 478.427 766.07 479.04L777.57 480.42C780.944 481.033 782.63 482.72 782.63 485.48C782.63 489.16 780.33 491 775.73 491H698.91ZM851.932 495.14C838.439 495.14 826.172 490.693 815.132 481.8C804.399 472.6 795.812 459.567 789.372 442.7C782.932 425.833 779.712 405.747 779.712 382.44C779.712 356.373 783.545 333.68 791.212 314.36C799.185 295.04 809.919 280.167 823.412 269.74C836.905 259.007 851.932 253.64 868.492 253.64C882.599 253.64 893.639 256.4 901.612 261.92C904.679 264.067 906.212 267.44 906.212 272.04L907.132 328.16C907.132 332.76 905.292 335.06 901.612 335.06C898.239 335.06 896.092 333.067 895.172 329.08C890.879 312.213 886.739 299.18 882.752 289.98C878.765 280.78 874.625 274.493 870.332 271.12C866.039 267.44 861.285 265.6 856.072 265.6C849.939 265.6 843.499 269.127 836.752 276.18C830.312 283.233 824.792 294.733 820.192 310.68C815.899 326.32 813.752 347.02 813.752 372.78C813.752 405.593 817.892 430.28 826.172 446.84C834.759 463.4 845.799 471.68 859.292 471.68C870.025 471.68 878.919 467.233 885.972 458.34C893.332 449.447 899.619 433.347 904.832 410.04C905.752 406.667 907.592 404.98 910.352 404.98C914.032 404.98 915.412 408.047 914.492 414.18C911.119 435.647 906.365 452.36 900.232 464.32C894.405 475.973 887.352 484.1 879.072 488.7C871.099 492.993 862.052 495.14 851.932 495.14Z" fill="#252525"/>
</svg>
