<svg width="304" height="99" viewBox="0 0 304 99" fill="none" xmlns="http://www.w3.org/2000/svg">
<path d="M61.016 97H0.856001V2.28H61.016V21.48H21.592V40.04H56.536V58.216H21.592V77.8H61.016V97ZM116.381 65.512H98.717V97H77.981V2.28H116.381C135.709 2.28 148.637 14.952 148.637 33.896C148.637 52.84 135.709 65.512 116.381 65.512ZM111.773 20.712H98.717V47.08H111.773C121.757 47.08 126.749 42.728 126.749 33.896C126.749 25.064 121.757 20.712 111.773 20.712ZM171.587 2.536L208.451 97H188.867L151.875 2.536H171.587ZM259.316 98.536C230.9 98.536 213.108 79.72 213.108 49.768C213.108 20.2 231.924 0.743996 260.212 0.743996C283.892 0.743996 300.916 14.312 303.86 35.56H281.972C279.156 26.088 271.092 20.712 259.7 20.712C244.34 20.712 234.996 31.592 234.996 49.64C234.996 67.432 244.468 78.568 259.7 78.568C271.348 78.568 279.924 72.808 282.484 63.464H303.988C300.66 84.584 282.996 98.536 259.316 98.536Z" fill="#101011"/>
</svg>
