<svg width="794" height="790" viewBox="0 0 794 790" fill="none" xmlns="http://www.w3.org/2000/svg">
<rect y="28" width="794" height="762" rx="146" fill="#FD8200"/>
<path d="M295.2 560.4C290 560.4 287 557.2 286.2 550.8C285.8 544.4 285.6 534.8 285.6 522V514.8C285.6 504.4 285.8 496.6 286.2 491.4C287 486.2 288.6 482.2 291 479.4C293.8 476.6 298 473.8 303.6 471L421.2 414L303.6 357C295.2 352.6 290 348 288 343.2C286.4 338 285.6 328 285.6 313.2V306C285.6 293.2 285.8 283.8 286.2 277.8C287 271.4 290 268.2 295.2 268.2C298.8 268.2 304.6 270.4 312.6 274.8L513 376.8C521 380.8 525.8 384.6 527.4 388.2C529 391.8 529.8 398.4 529.8 408V419.4C529.8 429 529 435.6 527.4 439.2C525.8 442.4 521 446.2 513 450.6L312.6 553.8C304.6 558.2 298.8 560.4 295.2 560.4Z" fill="white"/>
</svg>
