<svg width="496" height="295" viewBox="0 0 496 295" fill="none" xmlns="http://www.w3.org/2000/svg">
<g filter="url(#filter0_d_513_340)">
<rect x="0.492404" y="0.413176" width="463.477" height="179" rx="13.5" transform="matrix(0.984808 -0.173648 0 1 27.0075 99.741)" fill="#F6F4F1" stroke="#D8D8D8"/>
<path d="M61.4047 123.898C58.9651 124.328 56.5803 125.466 54.5519 127.168C52.5235 128.87 50.9426 131.06 50.009 133.46C49.0754 135.861 48.8311 138.364 49.3071 140.654C49.783 142.943 50.9578 144.917 52.6828 146.324C54.4078 147.731 56.6056 148.508 58.9983 148.559C61.391 148.609 63.8711 147.929 66.1249 146.606C68.3788 145.282 70.3052 143.374 71.6605 141.123C73.0158 138.872 73.7393 136.379 73.7393 133.959C73.7358 130.715 72.4352 127.834 70.1227 125.948C67.8103 124.062 64.6749 123.324 61.4047 123.898ZM66.82 133.021L60.1783 140.781C60.0902 140.884 59.9856 140.972 59.8704 141.039C59.7552 141.107 59.6317 141.153 59.507 141.175C59.3823 141.197 59.2589 141.194 59.1437 141.167C59.0285 141.14 58.9239 141.089 58.8357 141.017L55.9893 138.696C55.8113 138.55 55.7112 138.328 55.7112 138.079C55.7112 137.829 55.8113 137.572 55.9893 137.364C56.1673 137.156 56.4088 137.014 56.6606 136.97C56.9124 136.925 57.1538 136.982 57.3319 137.127L59.507 138.902L65.4775 131.926C65.5656 131.823 65.6703 131.735 65.7854 131.667C65.9006 131.6 66.0241 131.554 66.1487 131.532C66.2734 131.51 66.3969 131.512 66.512 131.539C66.6272 131.566 66.7319 131.617 66.82 131.689C66.9082 131.761 66.9781 131.852 67.0258 131.958C67.0735 132.064 67.0981 132.182 67.0981 132.306C67.0981 132.43 67.0735 132.556 67.0258 132.679C66.9781 132.802 66.9082 132.918 66.82 133.021Z" fill="#FF7700"/>
<path d="M90.7367 140.417V128.057L86.6596 128.776V127.136L96.8031 125.347V126.987L92.7063 127.71V140.07L90.7367 140.417ZM96.1948 139.455L101.257 124.562L103.404 124.183L108.466 137.291L106.358 137.662L102.32 126.774L98.2629 139.09L96.1948 139.455ZM98.4796 135.592L99.0311 133.894L105.511 132.752L106.063 134.255L98.4796 135.592ZM114.743 136.424C113.732 136.602 112.846 136.578 112.084 136.353C111.323 136.114 110.732 135.698 110.312 135.105C109.892 134.513 109.681 133.77 109.681 132.876L111.75 132.512C111.763 133.016 111.881 133.462 112.104 133.849C112.34 134.221 112.675 134.495 113.109 134.672C113.555 134.833 114.1 134.857 114.743 134.744C115.295 134.647 115.768 134.47 116.161 134.214C116.569 133.955 116.877 133.648 117.087 133.291C117.297 132.92 117.402 132.522 117.402 132.095C117.402 131.602 117.291 131.215 117.068 130.934C116.844 130.653 116.542 130.447 116.161 130.314C115.794 130.165 115.361 130.055 114.862 129.983C114.376 129.909 113.864 129.826 113.325 129.734C112.235 129.566 111.421 129.243 110.883 128.765C110.358 128.284 110.095 127.584 110.095 126.664C110.095 125.877 110.279 125.164 110.647 124.526C111.014 123.875 111.526 123.331 112.183 122.895C112.853 122.444 113.64 122.138 114.546 121.979C115.439 121.821 116.221 121.85 116.89 122.065C117.56 122.281 118.085 122.648 118.466 123.168C118.847 123.687 119.037 124.34 119.037 125.127L116.949 125.495C116.949 125.135 116.857 124.798 116.674 124.484C116.49 124.169 116.214 123.938 115.846 123.789C115.479 123.628 115.026 123.594 114.487 123.689C114.041 123.754 113.64 123.898 113.286 124.121C112.931 124.343 112.656 124.625 112.459 124.967C112.262 125.308 112.163 125.692 112.163 126.119C112.163 126.546 112.249 126.877 112.419 127.114C112.603 127.335 112.866 127.508 113.207 127.635C113.548 127.761 113.942 127.865 114.389 127.946C114.848 128.012 115.354 128.09 115.905 128.179C116.588 128.285 117.192 128.459 117.717 128.7C118.256 128.925 118.676 129.27 118.978 129.737C119.293 130.188 119.451 130.814 119.451 131.614C119.451 132.307 119.273 132.985 118.919 133.648C118.564 134.31 118.039 134.896 117.343 135.405C116.647 135.902 115.781 136.241 114.743 136.424ZM121.596 134.976V120.976L123.566 120.628V126.708L129.08 119.656L131.542 119.222L126.421 125.685L131.641 133.204L129.238 133.628L125.023 127.491L123.566 129.328V134.628L121.596 134.976ZM132.19 128.048V126.368L140.147 124.965V126.645L132.19 128.048ZM142.565 131.278V129.838C143.484 128.956 144.357 128.075 145.185 127.196C146.012 126.317 146.747 125.461 147.391 124.627C148.047 123.778 148.559 122.975 148.927 122.216C149.295 121.445 149.478 120.739 149.478 120.099C149.478 119.646 149.4 119.24 149.242 118.881C149.085 118.522 148.835 118.253 148.494 118.073C148.152 117.88 147.686 117.835 147.095 117.939C146.531 118.039 146.058 118.249 145.677 118.569C145.309 118.888 145.027 119.277 144.83 119.739C144.646 120.185 144.554 120.661 144.554 121.167L142.644 121.504C142.657 120.542 142.861 119.693 143.254 118.957C143.648 118.221 144.18 117.62 144.85 117.155C145.533 116.688 146.294 116.381 147.135 116.232C148.014 116.077 148.776 116.11 149.419 116.33C150.063 116.536 150.562 116.922 150.916 117.486C151.271 118.036 151.448 118.759 151.448 119.652C151.448 120.292 151.323 120.954 151.074 121.638C150.824 122.309 150.483 122.982 150.05 123.658C149.629 124.333 149.157 124.996 148.632 125.649C148.106 126.288 147.561 126.904 146.997 127.497C146.445 128.087 145.913 128.628 145.401 129.118L151.881 127.975V129.635L142.565 131.278ZM153.736 129.309V127.869C154.655 126.986 155.528 126.106 156.355 125.227C157.183 124.347 157.918 123.491 158.561 122.658C159.218 121.809 159.73 121.005 160.098 120.247C160.465 119.475 160.649 118.77 160.649 118.13C160.649 117.676 160.57 117.27 160.413 116.911C160.255 116.552 160.006 116.283 159.664 116.103C159.323 115.91 158.857 115.866 158.266 115.97C157.701 116.069 157.229 116.279 156.848 116.6C156.48 116.918 156.198 117.308 156.001 117.769C155.817 118.215 155.725 118.691 155.725 119.198L153.815 119.535C153.828 118.572 154.031 117.723 154.425 116.987C154.819 116.251 155.351 115.65 156.021 115.186C156.703 114.719 157.465 114.411 158.305 114.263C159.185 114.108 159.947 114.14 160.59 114.36C161.233 114.566 161.732 114.952 162.087 115.516C162.441 116.067 162.619 116.789 162.619 117.682C162.619 118.322 162.494 118.984 162.244 119.668C161.995 120.339 161.654 121.012 161.22 121.689C160.8 122.363 160.327 123.026 159.802 123.679C159.277 124.318 158.732 124.934 158.167 125.527C157.616 126.118 157.084 126.658 156.572 127.148L163.052 126.006V127.666L153.736 129.309Z" fill="#FF7700"/>
<path d="M54.5297 192.801L60.604 174.93L63.1803 174.476L69.2546 190.205L66.7256 190.651L61.8803 177.585L57.0114 192.364L54.5297 192.801ZM57.2714 188.166L57.9332 186.129L65.7092 184.758L66.371 186.561L57.2714 188.166ZM75.9284 189.316C74.7939 189.516 73.7934 189.421 72.9267 189.029C72.0601 188.622 71.3825 187.99 70.8941 187.132C70.4214 186.255 70.185 185.209 70.185 183.993C70.185 182.761 70.4214 181.631 70.8941 180.604C71.3825 179.574 72.0601 178.71 72.9267 178.013C73.8091 177.298 74.8176 176.84 75.952 176.64C76.8817 176.476 77.7011 176.524 78.4101 176.783C79.1192 177.025 79.6707 177.456 80.0646 178.075V171.019L82.4281 170.602V187.882L80.301 188.257L80.0646 186.427C79.8283 186.836 79.521 187.243 79.1428 187.645C78.7647 188.032 78.3077 188.377 77.772 188.679C77.2362 188.982 76.6217 189.194 75.9284 189.316ZM76.3066 187.161C77.0472 187.031 77.7011 186.74 78.2683 186.288C78.8356 185.835 79.2689 185.263 79.5683 184.57C79.8834 183.875 80.041 183.103 80.041 182.255C80.041 181.407 79.8834 180.699 79.5683 180.13C79.2689 179.543 78.8356 179.123 78.2683 178.872C77.7011 178.604 77.0472 178.535 76.3066 178.665C75.5975 178.79 74.9594 179.087 74.3921 179.555C73.8249 180.007 73.3837 180.581 73.0685 181.276C72.7534 181.956 72.5958 182.72 72.5958 183.568C72.5958 184.416 72.7534 185.132 73.0685 185.716C73.3837 186.301 73.8249 186.719 74.3921 186.971C74.9594 187.223 75.5975 187.286 76.3066 187.161ZM90.7181 186.708C89.5836 186.908 88.583 186.813 87.7164 186.422C86.8497 186.014 86.1722 185.382 85.6837 184.524C85.211 183.647 84.9747 182.601 84.9747 181.385C84.9747 180.153 85.211 179.023 85.6837 177.996C86.1722 176.966 86.8497 176.102 87.7164 175.406C88.5988 174.69 89.6072 174.232 90.7417 174.032C91.6714 173.868 92.4907 173.916 93.1998 174.175C93.9088 174.418 94.4603 174.848 94.8543 175.467V168.411L97.2178 167.994V185.274L95.0906 185.649L94.8543 183.819C94.6179 184.229 94.3107 184.635 93.9325 185.038C93.5543 185.424 93.0974 185.769 92.5616 186.071C92.0259 186.374 91.4114 186.586 90.7181 186.708ZM91.0962 184.554C91.8368 184.423 92.4907 184.132 93.058 183.68C93.6252 183.228 94.0585 182.655 94.3579 181.962C94.6731 181.267 94.8306 180.495 94.8306 179.647C94.8306 178.799 94.6731 178.091 94.3579 177.522C94.0585 176.935 93.6252 176.516 93.058 176.264C92.4907 175.996 91.8368 175.927 91.0962 176.058C90.3872 176.183 89.749 176.479 89.1818 176.947C88.6145 177.399 88.1733 177.973 87.8582 178.669C87.5431 179.348 87.3855 180.112 87.3855 180.96C87.3855 181.808 87.5431 182.524 87.8582 183.109C88.1733 183.693 88.6145 184.111 89.1818 184.363C89.749 184.615 90.3872 184.679 91.0962 184.554ZM110.633 183.197C109.625 183.375 108.742 183.362 107.986 183.159C107.23 182.957 106.631 182.59 106.19 182.06C105.749 181.53 105.481 180.865 105.386 180.066L107.797 179.641C107.876 180.011 108.026 180.337 108.246 180.618C108.482 180.896 108.798 181.096 109.192 181.219C109.601 181.339 110.082 181.35 110.633 181.253C111.153 181.161 111.579 181.014 111.91 180.812C112.256 180.591 112.508 180.338 112.666 180.054C112.823 179.755 112.902 179.453 112.902 179.149C112.902 178.701 112.792 178.384 112.571 178.199C112.367 177.995 112.051 177.867 111.626 177.814C111.216 177.742 110.72 177.701 110.137 177.692C109.585 177.693 109.05 177.66 108.53 177.592C108.026 177.505 107.569 177.369 107.159 177.185C106.765 176.999 106.45 176.734 106.213 176.392C105.977 176.034 105.859 175.567 105.859 174.991C105.859 174.303 106.04 173.655 106.403 173.047C106.765 172.423 107.277 171.9 107.939 171.48C108.616 171.04 109.412 170.74 110.326 170.579C111.65 170.345 112.713 170.478 113.517 170.976C114.32 171.475 114.793 172.295 114.935 173.438L112.642 173.842C112.579 173.31 112.343 172.935 111.933 172.719C111.524 172.488 110.98 172.432 110.302 172.551C109.625 172.671 109.105 172.898 108.742 173.234C108.38 173.57 108.199 173.962 108.199 174.41C108.199 174.698 108.301 174.936 108.506 175.124C108.711 175.312 109.01 175.451 109.404 175.541C109.814 175.613 110.31 175.662 110.893 175.687C111.728 175.7 112.477 175.768 113.139 175.891C113.8 176.014 114.328 176.273 114.722 176.668C115.116 177.062 115.313 177.692 115.313 178.556C115.329 179.305 115.14 180.002 114.746 180.648C114.368 181.29 113.824 181.834 113.115 182.279C112.422 182.721 111.594 183.027 110.633 183.197ZM123.248 180.972C122.114 181.172 121.106 181.086 120.223 180.714C119.341 180.341 118.647 179.728 118.143 178.872C117.655 178.015 117.411 176.962 117.411 175.714C117.411 174.434 117.655 173.279 118.143 172.248C118.647 171.2 119.341 170.333 120.223 169.65C121.106 168.95 122.13 168.498 123.296 168.292C124.462 168.086 125.462 168.174 126.297 168.555C127.133 168.935 127.779 169.526 128.236 170.325C128.693 171.108 128.921 172.028 128.921 173.084C128.921 173.244 128.913 173.421 128.897 173.616C128.897 173.792 128.889 173.994 128.874 174.22L119.136 175.937V174.233L126.557 172.925C126.51 171.925 126.179 171.2 125.565 170.748C124.95 170.28 124.186 170.127 123.272 170.288C122.626 170.402 122.035 170.658 121.499 171.057C120.964 171.439 120.53 171.948 120.2 172.582C119.884 173.197 119.727 173.937 119.727 174.801V175.473C119.727 176.369 119.884 177.101 120.2 177.67C120.53 178.22 120.964 178.607 121.499 178.833C122.035 179.042 122.618 179.091 123.248 178.98C124.005 178.847 124.627 178.569 125.116 178.147C125.604 177.725 125.967 177.205 126.203 176.587L128.566 176.171C128.362 176.943 128.015 177.668 127.526 178.346C127.038 179.008 126.431 179.571 125.707 180.035C124.998 180.496 124.178 180.808 123.248 180.972ZM136.818 178.58C135.667 178.783 134.643 178.699 133.745 178.329C132.847 177.944 132.138 177.325 131.618 176.473C131.114 175.617 130.861 174.566 130.861 173.318C130.861 172.054 131.114 170.905 131.618 169.873C132.138 168.821 132.847 167.952 133.745 167.265C134.643 166.563 135.667 166.111 136.818 165.908C138.267 165.652 139.481 165.822 140.457 166.418C141.434 167.014 142.057 167.944 142.325 169.209L139.867 169.642C139.709 168.966 139.347 168.486 138.779 168.202C138.228 167.915 137.566 167.84 136.794 167.976C136.164 168.087 135.581 168.358 135.045 168.788C134.509 169.203 134.076 169.759 133.745 170.457C133.43 171.137 133.272 171.941 133.272 172.869C133.272 173.557 133.367 174.156 133.556 174.667C133.745 175.161 133.997 175.565 134.312 175.877C134.643 176.187 135.021 176.4 135.447 176.517C135.872 176.618 136.321 176.627 136.794 176.544C137.314 176.452 137.779 176.29 138.188 176.058C138.614 175.807 138.968 175.488 139.252 175.102C139.551 174.714 139.756 174.278 139.867 173.794L142.325 173.361C142.057 174.688 141.434 175.83 140.457 176.786C139.481 177.726 138.267 178.324 136.818 178.58ZM149.226 176.392C148.297 176.556 147.485 176.507 146.792 176.245C146.114 175.98 145.587 175.498 145.208 174.796C144.846 174.092 144.665 173.156 144.665 171.988V164.812L147.028 164.395V171.307C147.028 172.443 147.273 173.256 147.761 173.746C148.249 174.236 148.951 174.4 149.865 174.239C150.479 174.131 151.031 173.882 151.519 173.491C152.023 173.099 152.417 172.589 152.701 171.963C152.984 171.337 153.126 170.608 153.126 169.776V163.32L155.49 162.903V174.999L153.386 175.37L153.221 173.335C152.858 174.135 152.33 174.804 151.637 175.343C150.944 175.881 150.14 176.231 149.226 176.392ZM158.489 174.47V162.374L160.617 161.999L160.829 164.242C161.097 163.651 161.444 163.133 161.869 162.69C162.295 162.231 162.791 161.848 163.358 161.54C163.941 161.229 164.603 161.008 165.344 160.878V163.422L164.493 163.572C164.004 163.658 163.539 163.804 163.098 164.01C162.657 164.2 162.263 164.469 161.917 164.818C161.586 165.164 161.326 165.602 161.137 166.132C160.947 166.661 160.853 167.294 160.853 168.03V174.054L158.489 174.47ZM167.443 172.892V160.796L169.807 160.379V172.475L167.443 172.892ZM168.649 158.303C168.192 158.384 167.814 158.306 167.514 158.071C167.231 157.833 167.089 157.49 167.089 157.042C167.089 156.61 167.231 156.233 167.514 155.911C167.814 155.57 168.192 155.36 168.649 155.279C169.09 155.201 169.46 155.28 169.76 155.515C170.059 155.734 170.209 156.06 170.209 156.492C170.209 156.94 170.059 157.334 169.76 157.675C169.46 158.016 169.09 158.225 168.649 158.303ZM177.867 171.054C177.11 171.187 176.456 171.182 175.905 171.04C175.353 170.897 174.928 170.572 174.628 170.065C174.329 169.557 174.179 168.824 174.179 167.864V161.648L172.123 162.01V159.97L174.179 159.608L174.463 156.534L176.543 156.167V159.191L179.923 158.595V160.635L176.543 161.231V167.471C176.543 168.159 176.685 168.606 176.968 168.812C177.252 169.002 177.74 169.036 178.434 168.914L179.805 168.672V170.712L177.867 171.054ZM183.664 175.311L186.571 168.175L185.885 168.296L181.182 158.373L183.735 157.923L187.469 166.049L191.227 156.602L193.709 156.164L186.145 174.874L183.664 175.311ZM201.37 166.909V149.629L203.734 149.213V166.493L201.37 166.909ZM212.179 165.292C211.06 165.489 210.051 165.403 209.153 165.033C208.271 164.661 207.57 164.048 207.05 163.196C206.546 162.325 206.293 161.265 206.293 160.017C206.293 158.737 206.553 157.579 207.073 156.544C207.593 155.492 208.302 154.623 209.201 153.937C210.099 153.25 211.107 152.808 212.226 152.611C213.36 152.411 214.369 152.497 215.251 152.87C216.134 153.242 216.827 153.856 217.331 154.711C217.851 155.563 218.111 156.629 218.111 157.909C218.111 159.189 217.851 160.347 217.331 161.383C216.827 162.416 216.126 163.276 215.228 163.962C214.329 164.648 213.313 165.091 212.179 165.292ZM212.179 163.228C212.825 163.114 213.408 162.851 213.928 162.439C214.463 162.025 214.889 161.478 215.204 160.798C215.535 160.1 215.7 159.279 215.7 158.335C215.7 157.391 215.543 156.634 215.228 156.066C214.912 155.481 214.487 155.076 213.951 154.851C213.431 154.623 212.856 154.564 212.226 154.675C211.596 154.786 211.013 155.049 210.477 155.464C209.941 155.878 209.508 156.434 209.177 157.133C208.862 157.812 208.704 158.624 208.704 159.568C208.704 160.512 208.862 161.276 209.177 161.861C209.508 162.426 209.933 162.823 210.453 163.052C210.989 163.277 211.564 163.336 212.179 163.228ZM224.9 168.328C223.813 168.52 222.852 168.546 222.017 168.405C221.182 168.28 220.536 167.97 220.079 167.475C219.622 166.979 219.393 166.315 219.393 165.483C219.393 165.051 219.488 164.595 219.677 164.113C219.866 163.648 220.173 163.178 220.599 162.703C221.024 162.228 221.599 161.766 222.324 161.319L223.648 162.165C222.844 162.611 222.3 163.067 222.017 163.533C221.749 164.012 221.615 164.452 221.615 164.852C221.615 165.332 221.757 165.707 222.04 165.977C222.324 166.247 222.71 166.419 223.198 166.492C223.703 166.564 224.27 166.543 224.9 166.432C225.515 166.324 226.05 166.142 226.507 165.885C226.964 165.628 227.319 165.318 227.571 164.953C227.823 164.589 227.949 164.191 227.949 163.759C227.949 163.247 227.76 162.848 227.382 162.563C227.004 162.293 226.279 162.221 225.207 162.346C224.309 162.441 223.545 162.487 222.915 162.486C222.3 162.483 221.772 162.44 221.331 162.358C220.906 162.273 220.543 162.161 220.244 162.021C219.96 161.879 219.716 161.722 219.511 161.551V160.999L221.875 158.11L223.789 158.444L221.213 161.323L221.709 160.155C221.883 160.236 222.048 160.319 222.206 160.403C222.363 160.472 222.576 160.522 222.844 160.555C223.112 160.588 223.474 160.596 223.931 160.579C224.388 160.563 224.987 160.521 225.727 160.454C226.799 160.346 227.658 160.386 228.304 160.576C228.965 160.764 229.446 161.087 229.745 161.546C230.045 162.005 230.195 162.587 230.195 163.291C230.195 163.979 230.005 164.668 229.627 165.359C229.265 166.047 228.69 166.66 227.902 167.199C227.13 167.735 226.129 168.112 224.9 168.328ZM224.9 159.04C223.892 159.218 223.033 159.178 222.324 158.919C221.631 158.657 221.095 158.231 220.717 157.642C220.354 157.05 220.173 156.354 220.173 155.554C220.173 154.738 220.354 153.978 220.717 153.274C221.095 152.551 221.639 151.935 222.348 151.426C223.057 150.901 223.908 150.551 224.9 150.376C225.893 150.201 226.736 150.253 227.429 150.53C228.138 150.789 228.674 151.215 229.036 151.807C229.415 152.38 229.604 153.075 229.604 153.891C229.604 154.691 229.415 155.452 229.036 156.175C228.674 156.895 228.138 157.509 227.429 158.018C226.736 158.525 225.893 158.865 224.9 159.04ZM224.9 157.12C225.672 156.984 226.287 156.676 226.744 156.195C227.201 155.699 227.429 155.058 227.429 154.274C227.429 153.49 227.201 152.939 226.744 152.619C226.287 152.284 225.672 152.184 224.9 152.32C224.128 152.457 223.506 152.774 223.033 153.274C222.56 153.757 222.324 154.391 222.324 155.175C222.324 155.959 222.56 156.517 223.033 156.85C223.506 157.166 224.128 157.257 224.9 157.12ZM226.838 152.219L226.271 150.423L231.164 149.56V151.216L226.838 152.219ZM238.143 165.993C237.056 166.185 236.095 166.21 235.26 166.07C234.425 165.945 233.779 165.635 233.322 165.139C232.865 164.644 232.636 163.98 232.636 163.148C232.636 162.716 232.731 162.26 232.92 161.778C233.109 161.313 233.416 160.843 233.842 160.368C234.267 159.893 234.842 159.431 235.567 158.983L236.891 159.83C236.087 160.276 235.544 160.732 235.26 161.198C234.992 161.677 234.858 162.117 234.858 162.517C234.858 162.997 235 163.372 235.284 163.642C235.567 163.911 235.953 164.083 236.442 164.157C236.946 164.228 237.513 164.208 238.143 164.097C238.758 163.989 239.294 163.806 239.751 163.55C240.208 163.293 240.562 162.983 240.814 162.618C241.066 162.254 241.192 161.856 241.192 161.424C241.192 160.912 241.003 160.513 240.625 160.228C240.247 159.958 239.522 159.886 238.451 160.011C237.553 160.105 236.788 160.152 236.158 160.151C235.544 160.148 235.016 160.105 234.574 160.023C234.149 159.938 233.787 159.825 233.487 159.686C233.204 159.544 232.959 159.387 232.755 159.215V158.663L235.118 155.775L237.033 156.109L234.456 158.987L234.953 157.82C235.126 157.901 235.291 157.984 235.449 158.068C235.607 158.137 235.819 158.187 236.087 158.22C236.355 158.253 236.717 158.261 237.174 158.244C237.631 158.228 238.23 158.186 238.971 158.119C240.042 158.01 240.901 158.051 241.547 158.241C242.209 158.428 242.689 158.752 242.989 159.211C243.288 159.67 243.438 160.252 243.438 160.956C243.438 161.644 243.249 162.333 242.871 163.024C242.508 163.712 241.933 164.325 241.145 164.864C240.373 165.4 239.372 165.777 238.143 165.993ZM238.143 156.705C237.135 156.883 236.276 156.842 235.567 156.583C234.874 156.322 234.338 155.896 233.96 155.307C233.598 154.715 233.416 154.019 233.416 153.219C233.416 152.403 233.598 151.643 233.96 150.939C234.338 150.216 234.882 149.6 235.591 149.091C236.3 148.566 237.151 148.216 238.143 148.041C239.136 147.866 239.979 147.918 240.672 148.195C241.381 148.454 241.917 148.88 242.28 149.472C242.658 150.045 242.847 150.74 242.847 151.556C242.847 152.356 242.658 153.117 242.28 153.84C241.917 154.56 241.381 155.174 240.672 155.683C239.979 156.19 239.136 156.53 238.143 156.705ZM238.143 154.785C238.916 154.649 239.53 154.341 239.987 153.86C240.444 153.364 240.672 152.723 240.672 151.939C240.672 151.155 240.444 150.604 239.987 150.284C239.53 149.949 238.916 149.849 238.143 149.985C237.371 150.121 236.749 150.439 236.276 150.938C235.804 151.422 235.567 152.055 235.567 152.839C235.567 153.623 235.804 154.182 236.276 154.514C236.749 154.831 237.371 154.921 238.143 154.785ZM240.082 149.883L239.514 148.088L244.407 147.225V148.881L240.082 149.883ZM246.707 158.915V146.819L249.07 146.403V158.499L246.707 158.915ZM247.912 144.327C247.455 144.407 247.077 144.33 246.778 144.095C246.494 143.857 246.352 143.514 246.352 143.066C246.352 142.634 246.494 142.257 246.778 141.935C247.077 141.594 247.455 141.383 247.912 141.303C248.353 141.225 248.724 141.304 249.023 141.539C249.322 141.758 249.472 142.084 249.472 142.516C249.472 142.964 249.322 143.358 249.023 143.699C248.724 144.04 248.353 144.249 247.912 144.327ZM252.214 157.944V145.848L254.341 145.473L254.483 147.512C254.861 146.725 255.397 146.063 256.09 145.525C256.783 144.971 257.579 144.614 258.477 144.456C259.423 144.289 260.234 144.338 260.912 144.603C261.589 144.867 262.117 145.358 262.495 146.075C262.873 146.777 263.062 147.711 263.062 148.879V156.031L260.699 156.448V149.536C260.699 148.416 260.455 147.611 259.966 147.121C259.478 146.631 258.769 146.468 257.839 146.632C257.225 146.741 256.673 146.99 256.185 147.38C255.696 147.754 255.302 148.256 255.003 148.884C254.719 149.51 254.577 150.239 254.577 151.071V157.527L252.214 157.944ZM270.695 160.254C269.607 160.445 268.646 160.471 267.811 160.33C266.976 160.205 266.33 159.895 265.873 159.4C265.416 158.904 265.188 158.241 265.188 157.409C265.188 156.977 265.282 156.52 265.471 156.039C265.66 155.573 265.968 155.103 266.393 154.628C266.818 154.153 267.394 153.692 268.118 153.244L269.442 154.09C268.638 154.536 268.095 154.992 267.811 155.458C267.543 155.937 267.409 156.377 267.409 156.777C267.409 157.257 267.551 157.632 267.835 157.902C268.118 158.172 268.504 158.344 268.993 158.418C269.497 158.489 270.064 158.469 270.695 158.358C271.309 158.249 271.845 158.067 272.302 157.81C272.759 157.554 273.113 157.243 273.366 156.879C273.618 156.514 273.744 156.116 273.744 155.684C273.744 155.172 273.555 154.773 273.176 154.488C272.798 154.219 272.073 154.146 271.002 154.271C270.104 154.366 269.34 154.412 268.709 154.412C268.095 154.408 267.567 154.365 267.126 154.283C266.7 154.198 266.338 154.086 266.039 153.947C265.755 153.805 265.511 153.648 265.306 153.476V152.924L267.669 150.035L269.584 150.369L267.008 153.248L267.504 152.08C267.677 152.162 267.843 152.244 268 152.329C268.158 152.397 268.371 152.447 268.638 152.48C268.906 152.513 269.269 152.521 269.726 152.504C270.183 152.488 270.781 152.446 271.522 152.38C272.593 152.271 273.452 152.311 274.098 152.501C274.76 152.689 275.241 153.012 275.54 153.471C275.839 153.93 275.989 154.512 275.989 155.216C275.989 155.904 275.8 156.593 275.422 157.284C275.059 157.972 274.484 158.585 273.696 159.124C272.924 159.66 271.924 160.037 270.695 160.254ZM270.695 150.966C269.686 151.143 268.828 151.103 268.118 150.844C267.425 150.582 266.889 150.157 266.511 149.567C266.149 148.975 265.968 148.279 265.968 147.479C265.968 146.663 266.149 145.903 266.511 145.199C266.889 144.477 267.433 143.861 268.142 143.352C268.851 142.827 269.702 142.477 270.695 142.302C271.687 142.127 272.53 142.178 273.224 142.456C273.933 142.715 274.468 143.14 274.831 143.732C275.209 144.306 275.398 145 275.398 145.816C275.398 146.616 275.209 147.378 274.831 148.1C274.468 148.82 273.933 149.435 273.224 149.944C272.53 150.45 271.687 150.791 270.695 150.966ZM270.695 149.046C271.467 148.909 272.081 148.601 272.538 148.12C272.995 147.624 273.224 146.984 273.224 146.2C273.224 145.416 272.995 144.864 272.538 144.544C272.081 144.209 271.467 144.109 270.695 144.246C269.923 144.382 269.3 144.699 268.828 145.199C268.355 145.682 268.118 146.316 268.118 147.1C268.118 147.884 268.355 148.442 268.828 148.775C269.3 149.091 269.923 149.182 270.695 149.046ZM272.633 144.144L272.066 142.348L276.958 141.485V143.141L272.633 144.144ZM285.542 152.068V138.34C285.542 137.508 285.676 136.804 285.944 136.229C286.227 135.651 286.637 135.195 287.173 134.86C287.708 134.526 288.354 134.292 289.111 134.158L290.505 133.912V135.952L289.489 136.132C288.922 136.232 288.512 136.424 288.26 136.708C288.024 136.974 287.905 137.395 287.905 137.971V151.651L285.542 152.068ZM283.793 142.32V140.28L290.765 139.051V141.091L283.793 142.32ZM297.905 150.176C296.786 150.373 295.778 150.287 294.88 149.917C293.997 149.545 293.296 148.932 292.776 148.08C292.272 147.209 292.02 146.149 292.02 144.901C292.02 143.621 292.28 142.464 292.8 141.428C293.32 140.376 294.029 139.507 294.927 138.821C295.825 138.134 296.833 137.693 297.952 137.495C299.087 137.295 300.095 137.381 300.978 137.754C301.86 138.126 302.553 138.74 303.057 139.595C303.577 140.447 303.837 141.514 303.837 142.794C303.837 144.074 303.577 145.231 303.057 146.267C302.553 147.3 301.852 148.16 300.954 148.846C300.056 149.532 299.039 149.976 297.905 150.176ZM297.905 148.112C298.551 147.998 299.134 147.735 299.654 147.323C300.19 146.909 300.615 146.362 300.93 145.682C301.261 144.984 301.427 144.163 301.427 143.219C301.427 142.275 301.269 141.518 300.954 140.95C300.639 140.366 300.213 139.961 299.678 139.735C299.158 139.507 298.582 139.448 297.952 139.559C297.322 139.67 296.739 139.933 296.203 140.348C295.667 140.762 295.234 141.319 294.903 142.017C294.588 142.697 294.431 143.508 294.431 144.452C294.431 145.396 294.588 146.161 294.903 146.745C295.234 147.311 295.66 147.708 296.18 147.936C296.715 148.161 297.29 148.22 297.905 148.112ZM306.381 148.393V136.297L308.509 135.922L308.721 138.164C308.989 137.573 309.336 137.056 309.761 136.613C310.187 136.154 310.683 135.771 311.25 135.463C311.833 135.152 312.495 134.931 313.236 134.8V137.344L312.385 137.494C311.896 137.581 311.431 137.727 310.99 137.932C310.549 138.122 310.155 138.392 309.808 138.741C309.478 139.087 309.218 139.525 309.029 140.054C308.839 140.584 308.745 141.216 308.745 141.952V147.976L306.381 148.393ZM324.928 145.411C323.951 145.583 323.14 145.558 322.493 145.336C321.847 145.114 321.367 144.751 321.052 144.246C320.737 143.726 320.579 143.138 320.579 142.482C320.579 141.682 320.784 140.965 321.194 140.333C321.603 139.685 322.186 139.142 322.943 138.705C323.699 138.267 324.605 137.956 325.661 137.77L328.757 137.224C328.757 136.52 328.654 135.954 328.45 135.526C328.245 135.098 327.938 134.808 327.528 134.656C327.134 134.486 326.63 134.455 326.015 134.563C325.306 134.688 324.699 134.971 324.195 135.412C323.691 135.837 323.376 136.396 323.25 137.091L320.886 137.507C320.981 136.643 321.264 135.873 321.737 135.197C322.226 134.503 322.848 133.93 323.604 133.476C324.361 133.007 325.164 132.697 326.015 132.547C327.134 132.35 328.071 132.384 328.828 132.651C329.584 132.918 330.151 133.386 330.53 134.055C330.923 134.706 331.12 135.535 331.12 136.543V144.031L329.064 144.393L328.875 142.387C328.702 142.737 328.497 143.077 328.261 143.407C328.024 143.737 327.741 144.035 327.41 144.301C327.095 144.565 326.724 144.79 326.299 144.977C325.889 145.177 325.432 145.322 324.928 145.411ZM325.377 143.388C325.881 143.299 326.338 143.114 326.748 142.834C327.158 142.554 327.504 142.213 327.788 141.811C328.087 141.39 328.308 140.943 328.45 140.47C328.607 139.978 328.694 139.491 328.71 139.008V138.936L325.897 139.432C325.219 139.551 324.668 139.737 324.243 139.988C323.833 140.22 323.533 140.497 323.344 140.818C323.155 141.139 323.061 141.492 323.061 141.876C323.061 142.276 323.147 142.605 323.321 142.862C323.51 143.101 323.778 143.27 324.124 143.368C324.471 143.467 324.889 143.474 325.377 143.388ZM333.901 143.541V126.261L336.264 125.844V143.124L333.901 143.541ZM339.273 142.593V125.313L341.637 124.897V142.177L339.273 142.593ZM355.893 139.951C354.774 140.148 353.766 140.062 352.868 139.692C351.985 139.32 351.284 138.707 350.764 137.855C350.26 136.984 350.008 135.925 350.008 134.677C350.008 133.397 350.268 132.239 350.788 131.203C351.308 130.151 352.017 129.282 352.915 128.596C353.813 127.91 354.821 127.468 355.94 127.27C357.075 127.07 358.083 127.157 358.965 127.529C359.848 127.901 360.541 128.515 361.045 129.37C361.565 130.223 361.825 131.289 361.825 132.569C361.825 133.849 361.565 135.007 361.045 136.042C360.541 137.075 359.84 137.935 358.942 138.621C358.044 139.308 357.027 139.751 355.893 139.951ZM355.893 137.887C356.539 137.773 357.122 137.51 357.642 137.098C358.178 136.684 358.603 136.137 358.918 135.457C359.249 134.759 359.415 133.938 359.415 132.994C359.415 132.05 359.257 131.294 358.942 130.725C358.627 130.141 358.201 129.736 357.666 129.51C357.146 129.282 356.57 129.223 355.94 129.334C355.31 129.446 354.727 129.708 354.191 130.123C353.655 130.537 353.222 131.094 352.891 131.792C352.576 132.472 352.418 133.283 352.418 134.227C352.418 135.171 352.576 135.936 352.891 136.52C353.222 137.086 353.648 137.483 354.168 137.711C354.703 137.937 355.278 137.995 355.893 137.887ZM364.369 143.448V126.072L366.496 125.697L366.733 127.527C366.985 127.115 367.3 126.715 367.678 126.329C368.056 125.926 368.505 125.575 369.025 125.275C369.561 124.973 370.184 124.759 370.893 124.634C372.027 124.434 373.02 124.539 373.871 124.949C374.737 125.356 375.407 125.998 375.88 126.875C376.368 127.732 376.612 128.769 376.612 129.985C376.612 131.201 376.368 132.332 375.88 133.379C375.391 134.409 374.714 135.272 373.847 135.969C372.996 136.663 372.004 137.11 370.869 137.31C369.939 137.474 369.12 137.435 368.411 137.192C367.702 136.933 367.143 136.503 366.733 135.903V143.031L364.369 143.448ZM370.491 135.289C371.216 135.161 371.854 134.872 372.405 134.423C372.973 133.971 373.414 133.397 373.729 132.702C374.06 132.004 374.225 131.23 374.225 130.382C374.225 129.534 374.06 128.828 373.729 128.262C373.414 127.677 372.973 127.259 372.405 127.007C371.854 126.736 371.216 126.665 370.491 126.793C369.75 126.923 369.096 127.223 368.529 127.691C367.978 128.14 367.544 128.712 367.229 129.408C366.914 130.087 366.756 130.851 366.756 131.699C366.756 132.547 366.914 133.263 367.229 133.848C367.544 134.432 367.978 134.852 368.529 135.107C369.096 135.359 369.75 135.419 370.491 135.289ZM384.525 134.902C383.39 135.102 382.382 135.016 381.499 134.644C380.617 134.271 379.924 133.658 379.42 132.802C378.931 131.945 378.687 130.892 378.687 129.644C378.687 128.364 378.931 127.209 379.42 126.178C379.924 125.13 380.617 124.263 381.499 123.58C382.382 122.88 383.406 122.428 384.572 122.222C385.738 122.016 386.739 122.104 387.574 122.485C388.409 122.865 389.055 123.455 389.512 124.255C389.969 125.038 390.197 125.958 390.197 127.014C390.197 127.174 390.189 127.351 390.174 127.546C390.174 127.722 390.166 127.924 390.15 128.15L380.412 129.867V128.163L387.834 126.855C387.786 125.855 387.456 125.129 386.841 124.678C386.226 124.21 385.462 124.057 384.548 124.218C383.902 124.332 383.311 124.588 382.776 124.987C382.24 125.369 381.807 125.878 381.476 126.512C381.161 127.127 381.003 127.867 381.003 128.731V129.403C381.003 130.299 381.161 131.031 381.476 131.6C381.807 132.15 382.24 132.537 382.776 132.763C383.311 132.972 383.894 133.021 384.525 132.91C385.281 132.777 385.903 132.499 386.392 132.077C386.88 131.655 387.243 131.135 387.479 130.517L389.843 130.101C389.638 130.873 389.291 131.598 388.803 132.276C388.314 132.938 387.708 133.501 386.983 133.965C386.274 134.426 385.454 134.738 384.525 134.902ZM392.587 133.193V121.097L394.714 120.722L394.927 122.964C395.195 122.373 395.541 121.856 395.967 121.413C396.392 120.954 396.888 120.57 397.456 120.262C398.039 119.951 398.701 119.731 399.441 119.6V122.144L398.59 122.294C398.102 122.38 397.637 122.526 397.196 122.732C396.755 122.922 396.361 123.191 396.014 123.54C395.683 123.887 395.423 124.325 395.234 124.854C395.045 125.383 394.95 126.016 394.95 126.752V132.776L392.587 133.193ZM405.322 131.235C404.345 131.407 403.534 131.382 402.888 131.16C402.242 130.938 401.761 130.575 401.446 130.071C401.131 129.55 400.973 128.962 400.973 128.306C400.973 127.506 401.178 126.79 401.588 126.158C401.998 125.509 402.581 124.967 403.337 124.529C404.093 124.092 404.999 123.78 406.055 123.594L409.151 123.048C409.151 122.344 409.049 121.778 408.844 121.35C408.639 120.922 408.332 120.632 407.922 120.481C407.528 120.31 407.024 120.279 406.41 120.387C405.701 120.512 405.094 120.795 404.59 121.236C404.085 121.661 403.77 122.221 403.644 122.915L401.281 123.332C401.375 122.467 401.659 121.697 402.132 121.022C402.62 120.328 403.242 119.754 403.999 119.3C404.755 118.831 405.559 118.521 406.41 118.371C407.528 118.174 408.466 118.209 409.222 118.475C409.979 118.742 410.546 119.21 410.924 119.879C411.318 120.53 411.515 121.359 411.515 122.367V129.855L409.459 130.218L409.27 128.211C409.096 128.562 408.891 128.902 408.655 129.231C408.419 129.561 408.135 129.859 407.804 130.125C407.489 130.389 407.119 130.614 406.693 130.801C406.284 131.002 405.827 131.146 405.322 131.235ZM405.771 129.212C406.276 129.123 406.733 128.938 407.142 128.658C407.552 128.378 407.899 128.037 408.182 127.635C408.482 127.214 408.702 126.767 408.844 126.294C409.002 125.802 409.088 125.315 409.104 124.832V124.76L406.291 125.256C405.614 125.376 405.062 125.561 404.637 125.812C404.227 126.044 403.928 126.321 403.739 126.642C403.55 126.964 403.455 127.316 403.455 127.7C403.455 128.1 403.542 128.429 403.715 128.686C403.904 128.925 404.172 129.094 404.519 129.193C404.865 129.292 405.283 129.298 405.771 129.212ZM418.958 128.543C418.201 128.676 417.547 128.671 416.996 128.529C416.444 128.386 416.019 128.061 415.72 127.554C415.42 127.047 415.271 126.313 415.271 125.353V119.137L413.214 119.5V117.46L415.271 117.097L415.554 114.023L417.634 113.656V116.68L421.014 116.084V118.124L417.634 118.72V124.96C417.634 125.648 417.776 126.095 418.059 126.301C418.343 126.491 418.832 126.525 419.525 126.403L420.896 126.161V128.201L418.958 128.543ZM423.549 127.733V115.637L425.913 115.22V127.316L423.549 127.733ZM424.755 113.145C424.298 113.225 423.92 113.148 423.62 112.913C423.337 112.675 423.195 112.332 423.195 111.884C423.195 111.452 423.337 111.075 423.62 110.753C423.92 110.412 424.298 110.201 424.755 110.121C425.196 110.043 425.566 110.122 425.866 110.357C426.165 110.576 426.315 110.902 426.315 111.334C426.315 111.782 426.165 112.176 425.866 112.517C425.566 112.858 425.196 113.067 424.755 113.145ZM434.493 126.092C433.374 126.289 432.365 126.203 431.467 125.833C430.585 125.461 429.884 124.848 429.364 123.996C428.859 123.125 428.607 122.065 428.607 120.817C428.607 119.537 428.867 118.379 429.387 117.344C429.907 116.292 430.616 115.423 431.514 114.737C432.413 114.05 433.421 113.609 434.54 113.411C435.674 113.211 436.683 113.297 437.565 113.67C438.448 114.042 439.141 114.656 439.645 115.511C440.165 116.363 440.425 117.43 440.425 118.71C440.425 119.99 440.165 121.147 439.645 122.183C439.141 123.216 438.44 124.076 437.541 124.762C436.643 125.448 435.627 125.892 434.493 126.092ZM434.493 124.028C435.139 123.914 435.722 123.651 436.242 123.239C436.777 122.825 437.203 122.278 437.518 121.598C437.849 120.9 438.014 120.079 438.014 119.135C438.014 118.191 437.857 117.434 437.541 116.866C437.226 116.282 436.801 115.877 436.265 115.651C435.745 115.423 435.17 115.364 434.54 115.475C433.91 115.586 433.327 115.849 432.791 116.264C432.255 116.678 431.822 117.235 431.491 117.933C431.176 118.612 431.018 119.424 431.018 120.368C431.018 121.312 431.176 122.076 431.491 122.661C431.822 123.227 432.247 123.624 432.767 123.852C433.303 124.077 433.878 124.136 434.493 124.028ZM442.969 124.309V112.213L445.096 111.838L445.238 113.877C445.616 113.09 446.152 112.428 446.845 111.889C447.538 111.335 448.334 110.979 449.232 110.821C450.178 110.654 450.989 110.703 451.667 110.967C452.344 111.232 452.872 111.723 453.25 112.44C453.629 113.141 453.818 114.076 453.818 115.244V122.396L451.454 122.813V115.901C451.454 114.781 451.21 113.976 450.721 113.486C450.233 112.996 449.524 112.833 448.594 112.997C447.98 113.105 447.428 113.355 446.94 113.745C446.451 114.119 446.057 114.62 445.758 115.249C445.474 115.875 445.332 116.604 445.332 117.436V123.892L442.969 124.309ZM461.213 121.38C460.205 121.558 459.323 121.545 458.566 121.343C457.81 121.14 457.211 120.774 456.77 120.243C456.329 119.713 456.061 119.048 455.966 118.249L458.377 117.824C458.456 118.194 458.606 118.52 458.826 118.801C459.063 119.079 459.378 119.28 459.772 119.402C460.181 119.522 460.662 119.533 461.213 119.436C461.733 119.344 462.159 119.197 462.49 118.995C462.836 118.774 463.089 118.521 463.246 118.238C463.404 117.938 463.482 117.636 463.482 117.332C463.482 116.884 463.372 116.567 463.152 116.382C462.947 116.178 462.632 116.05 462.206 115.997C461.796 115.925 461.3 115.885 460.717 115.875C460.166 115.877 459.63 115.843 459.11 115.775C458.606 115.688 458.149 115.552 457.739 115.369C457.345 115.182 457.03 114.918 456.794 114.575C456.557 114.217 456.439 113.75 456.439 113.174C456.439 112.486 456.62 111.838 456.983 111.23C457.345 110.606 457.857 110.084 458.519 109.663C459.197 109.224 459.992 108.923 460.906 108.762C462.23 108.529 463.293 108.661 464.097 109.16C464.901 109.658 465.373 110.478 465.515 111.621L463.222 112.026C463.159 111.493 462.923 111.119 462.513 110.903C462.104 110.671 461.56 110.615 460.883 110.734C460.205 110.854 459.685 111.081 459.323 111.417C458.96 111.753 458.779 112.145 458.779 112.593C458.779 112.881 458.881 113.119 459.086 113.307C459.291 113.495 459.59 113.634 459.984 113.725C460.394 113.796 460.89 113.845 461.473 113.87C462.309 113.883 463.057 113.951 463.719 114.074C464.381 114.198 464.908 114.456 465.302 114.851C465.696 115.246 465.893 115.875 465.893 116.739C465.909 117.488 465.72 118.185 465.326 118.831C464.948 119.473 464.404 120.017 463.695 120.462C463.002 120.905 462.175 121.21 461.213 121.38Z" fill="black"/>
<path d="M54.2815 242.543L58.078 231.373L59.6881 231.089L63.4846 240.92L61.904 241.199L58.8757 233.032L55.8326 242.269L54.2815 242.543ZM55.9951 239.645L56.4087 238.372L61.2688 237.516L61.6824 238.643L55.9951 239.645ZM67.3249 240.423C66.7438 240.525 66.2366 240.495 65.8033 240.331C65.3799 240.166 65.05 239.864 64.8136 239.425C64.5871 238.975 64.4738 238.385 64.4738 237.655V233.2L65.951 232.94V237.245C65.951 237.955 66.0988 238.464 66.3942 238.772C66.6995 239.078 67.1427 239.18 67.7237 239.077C68.1078 239.01 68.4525 238.854 68.7578 238.61C69.0729 238.364 69.3191 238.046 69.4964 237.655C69.6736 237.264 69.7623 236.808 69.7623 236.288V232.268L71.2395 232.007V239.552L69.9247 239.784L69.8213 238.512C69.5948 239.002 69.26 239.421 68.8168 239.77C68.3835 240.106 67.8862 240.324 67.3249 240.423ZM76.1425 242.168C75.463 242.288 74.8623 242.304 74.3403 242.216C73.8184 242.138 73.4146 241.944 73.129 241.634C72.8434 241.325 72.7006 240.91 72.7006 240.39C72.7006 240.12 72.7597 239.834 72.8779 239.534C72.9961 239.243 73.1881 238.949 73.454 238.652C73.7199 238.355 74.0794 238.067 74.5324 237.787L75.3448 238.319C74.8524 238.595 74.5176 238.879 74.3403 239.171C74.1729 239.47 74.0892 239.745 74.0892 239.995C74.0892 240.295 74.1778 240.529 74.3551 240.698C74.5324 240.867 74.7737 240.974 75.0789 241.02C75.3941 241.065 75.7486 241.052 76.1425 240.983C76.5266 240.915 76.8565 240.802 77.1323 240.643C77.4179 240.483 77.6394 240.289 77.797 240.061C77.9546 239.833 78.0334 239.584 78.0334 239.314C78.0334 238.994 77.9152 238.745 77.6788 238.567C77.4523 238.397 77.0042 238.351 76.3346 238.429C75.7732 238.488 75.2956 238.517 74.9017 238.517C74.5176 238.514 74.1877 238.488 73.912 238.436C73.6461 238.383 73.4195 238.313 73.2324 238.226C73.0552 238.137 72.9025 238.039 72.7745 237.932V237.587L74.2517 235.781L75.4335 235.993L73.8381 237.789L74.1483 237.059C74.2566 237.12 74.36 237.172 74.4585 237.215C74.557 237.257 74.6899 237.289 74.8574 237.309C75.0248 237.33 75.2513 237.335 75.5369 237.325C75.8225 237.314 76.1967 237.288 76.6596 237.247C77.3194 237.18 77.8561 237.206 78.2697 237.323C78.6833 237.44 78.9837 237.642 79.1708 237.929C79.3579 238.216 79.4515 238.579 79.4515 239.019C79.4515 239.449 79.3333 239.88 79.097 240.312C78.8606 240.744 78.4962 241.128 78.0038 241.465C77.5213 241.8 76.9008 242.034 76.1425 242.168ZM76.1278 236.365C75.5073 236.475 74.9755 236.449 74.5324 236.287C74.0991 236.123 73.7642 235.857 73.5279 235.489C73.3014 235.119 73.1881 234.684 73.1881 234.184C73.1881 233.684 73.3014 233.214 73.5279 232.774C73.7642 232.322 74.0991 231.938 74.5324 231.622C74.9755 231.294 75.5073 231.075 76.1278 230.965C76.758 230.854 77.2898 230.886 77.7232 231.059C78.1663 231.221 78.5012 231.487 78.7277 231.857C78.964 232.215 79.0822 232.645 79.0822 233.145C79.0822 233.645 78.964 234.12 78.7277 234.572C78.5012 235.022 78.1663 235.406 77.7232 235.724C77.2898 236.041 76.758 236.254 76.1278 236.365ZM76.1278 235.165C76.6103 235.08 76.9944 234.888 77.28 234.587C77.5754 234.275 77.7232 233.874 77.7232 233.384C77.7232 232.904 77.5754 232.565 77.28 232.367C76.9944 232.158 76.6103 232.095 76.1278 232.18C75.6551 232.264 75.271 232.462 74.9755 232.774C74.6801 233.076 74.5324 233.467 74.5324 233.947C74.5324 234.437 74.6801 234.786 74.9755 234.994C75.271 235.192 75.6551 235.249 76.1278 235.165ZM77.3539 232.114L76.9993 230.992L80.0424 230.455V231.49L77.3539 232.114ZM84.8757 237.148V236.068C85.5651 235.406 86.2151 234.747 86.8257 234.089C87.4461 233.43 87.9976 232.787 88.4801 232.162C88.9725 231.526 89.3566 230.923 89.6324 230.354C89.918 229.774 90.0608 229.244 90.0608 228.764C90.0608 228.424 90.0017 228.119 89.8835 227.85C89.7653 227.581 89.5733 227.38 89.3074 227.247C89.0513 227.102 88.7066 227.067 88.2733 227.144C87.8499 227.219 87.4953 227.376 87.2097 227.616C86.9241 227.857 86.7075 228.15 86.5598 228.496C86.4219 228.83 86.353 229.187 86.353 229.567L84.9348 229.818C84.9447 229.096 85.0973 228.459 85.3928 227.907C85.6882 227.355 86.0871 226.904 86.5893 226.556C87.0916 226.207 87.6628 225.977 88.3029 225.864C88.9528 225.749 89.5191 225.774 90.0017 225.939C90.4842 226.094 90.8585 226.383 91.1244 226.806C91.4001 227.218 91.538 227.758 91.538 228.428C91.538 228.908 91.4444 229.405 91.2573 229.918C91.0702 230.421 90.8141 230.926 90.4891 231.433C90.1642 231.94 89.8047 232.439 89.4108 232.928C89.0169 233.408 88.6131 233.869 88.1995 234.312C87.7859 234.755 87.387 235.16 87.0029 235.528L91.8482 234.674V235.919L84.8757 237.148ZM97.213 235.153C96.4547 235.286 95.8146 235.259 95.2926 235.071C94.7805 234.871 94.3669 234.559 94.0518 234.135C93.7366 233.701 93.5052 233.201 93.3575 232.637C93.2196 232.062 93.1507 231.459 93.1507 230.829C93.1507 229.669 93.3082 228.626 93.6234 227.701C93.9484 226.773 94.4112 226.012 95.012 225.416C95.6127 224.82 96.3365 224.447 97.1835 224.298C97.863 224.178 98.4391 224.211 98.9118 224.398C99.3944 224.573 99.7686 224.857 100.034 225.25C100.31 225.641 100.478 226.097 100.537 226.617L99.1629 226.859C99.0644 226.356 98.8429 225.995 98.4982 225.776C98.1535 225.547 97.7103 225.48 97.1687 225.575C96.6861 225.66 96.2528 225.892 95.8687 226.27C95.4847 226.637 95.1794 227.151 94.9529 227.811C94.7362 228.459 94.6131 229.266 94.5836 230.231C94.5836 230.241 94.5836 230.256 94.5836 230.276C94.5836 230.296 94.5836 230.316 94.5836 230.336C94.7313 230.01 94.943 229.698 95.2188 229.399C95.4945 229.101 95.8195 228.848 96.1937 228.642C96.5778 228.425 96.9914 228.277 97.4346 228.199C98.0156 228.096 98.5573 228.141 99.0595 228.332C99.5716 228.512 99.9852 228.829 100.3 229.283C100.616 229.738 100.773 230.305 100.773 230.985C100.773 231.595 100.625 232.196 100.33 232.788C100.044 233.378 99.6356 233.89 99.1038 234.324C98.572 234.748 97.9418 235.024 97.213 235.153ZM97.1096 233.866C97.5331 233.791 97.9122 233.629 98.247 233.38C98.5819 233.131 98.8429 232.83 99.03 232.477C99.2171 232.114 99.3106 231.723 99.3106 231.303C99.3106 230.873 99.2171 230.514 99.03 230.227C98.8429 229.93 98.5819 229.721 98.247 229.6C97.9122 229.479 97.5331 229.456 97.1096 229.531C96.6861 229.605 96.307 229.772 95.9721 230.031C95.6373 230.28 95.3714 230.587 95.1744 230.952C94.9775 231.307 94.879 231.689 94.879 232.099C94.879 232.519 94.9775 232.877 95.1744 233.172C95.3714 233.457 95.6373 233.665 95.9721 233.796C96.3168 233.916 96.696 233.939 97.1096 233.866Z" fill="black"/>
</g>
<defs>
<filter id="filter0_d_513_340" x="0.200001" y="-1.8" width="495.02" height="298.256" filterUnits="userSpaceOnUse" color-interpolation-filters="sRGB">
<feFlood flood-opacity="0" result="BackgroundImageFix"/>
<feColorMatrix in="SourceAlpha" type="matrix" values="0 0 0 0 0 0 0 0 0 0 0 0 0 0 0 0 0 0 127 0" result="hardAlpha"/>
<feOffset dx="-8" dy="-2"/>
<feGaussianBlur stdDeviation="9.4"/>
<feComposite in2="hardAlpha" operator="out"/>
<feColorMatrix type="matrix" values="0 0 0 0 0 0 0 0 0 0 0 0 0 0 0 0 0 0 0.11 0"/>
<feBlend mode="normal" in2="BackgroundImageFix" result="effect1_dropShadow_513_340"/>
<feBlend mode="normal" in="SourceGraphic" in2="effect1_dropShadow_513_340" result="shape"/>
</filter>
</defs>
</svg>
