<svg width="496" height="295" viewBox="0 0 496 295" fill="none" xmlns="http://www.w3.org/2000/svg">
<g filter="url(#filter0_d_513_328)">
<rect x="0.492404" y="0.413176" width="463.477" height="179" rx="13.5" transform="matrix(0.984808 -0.173648 0 1 27.0075 99.741)" fill="#F6F4F1" stroke="#D8D8D8"/>
<path d="M61.4047 123.898C58.9651 124.328 56.5803 125.466 54.5519 127.168C52.5235 128.87 50.9426 131.06 50.009 133.46C49.0754 135.861 48.8311 138.364 49.3071 140.654C49.783 142.943 50.9578 144.917 52.6828 146.324C54.4078 147.731 56.6056 148.508 58.9983 148.559C61.391 148.609 63.8711 147.929 66.1249 146.606C68.3788 145.282 70.3052 143.374 71.6605 141.123C73.0158 138.872 73.7393 136.379 73.7393 133.959C73.7358 130.715 72.4352 127.834 70.1227 125.948C67.8103 124.062 64.6749 123.324 61.4047 123.898ZM66.82 133.021L60.1783 140.781C60.0902 140.884 59.9856 140.972 59.8704 141.039C59.7552 141.107 59.6317 141.153 59.507 141.175C59.3823 141.197 59.2589 141.194 59.1437 141.167C59.0285 141.14 58.9239 141.089 58.8357 141.017L55.9893 138.696C55.8113 138.55 55.7112 138.328 55.7112 138.079C55.7112 137.829 55.8113 137.572 55.9893 137.364C56.1673 137.156 56.4088 137.014 56.6606 136.97C56.9124 136.925 57.1538 136.982 57.3319 137.127L59.507 138.902L65.4775 131.926C65.5656 131.823 65.6703 131.735 65.7854 131.667C65.9006 131.6 66.0241 131.554 66.1487 131.532C66.2734 131.51 66.3969 131.512 66.512 131.539C66.6272 131.566 66.7319 131.617 66.82 131.689C66.9082 131.761 66.9781 131.852 67.0258 131.958C67.0735 132.064 67.0981 132.182 67.0981 132.306C67.0981 132.43 67.0735 132.556 67.0258 132.679C66.9781 132.802 66.9082 132.918 66.82 133.021Z" fill="#FF7700"/>
<path d="M90.7367 140.417V128.057L86.6596 128.776V127.136L96.8031 125.347V126.987L92.7063 127.71V140.07L90.7367 140.417ZM96.1948 139.455L101.257 124.562L103.404 124.183L108.466 137.291L106.358 137.662L102.32 126.774L98.2629 139.09L96.1948 139.455ZM98.4796 135.592L99.0311 133.894L105.511 132.752L106.063 134.255L98.4796 135.592ZM114.743 136.424C113.732 136.602 112.846 136.578 112.084 136.353C111.323 136.114 110.732 135.698 110.312 135.105C109.892 134.513 109.681 133.77 109.681 132.876L111.75 132.512C111.763 133.016 111.881 133.462 112.104 133.849C112.34 134.221 112.675 134.495 113.109 134.672C113.555 134.833 114.1 134.857 114.743 134.744C115.295 134.647 115.768 134.47 116.161 134.214C116.569 133.955 116.877 133.648 117.087 133.291C117.297 132.92 117.402 132.522 117.402 132.095C117.402 131.602 117.291 131.215 117.068 130.934C116.844 130.653 116.542 130.447 116.161 130.314C115.794 130.165 115.361 130.055 114.862 129.983C114.376 129.909 113.864 129.826 113.325 129.734C112.235 129.566 111.421 129.243 110.883 128.765C110.358 128.284 110.095 127.584 110.095 126.664C110.095 125.877 110.279 125.164 110.647 124.526C111.014 123.875 111.526 123.331 112.183 122.895C112.853 122.444 113.64 122.138 114.546 121.979C115.439 121.821 116.221 121.85 116.89 122.065C117.56 122.281 118.085 122.648 118.466 123.168C118.847 123.687 119.037 124.34 119.037 125.127L116.949 125.495C116.949 125.135 116.857 124.798 116.674 124.484C116.49 124.169 116.214 123.938 115.846 123.789C115.479 123.628 115.026 123.594 114.487 123.689C114.041 123.754 113.64 123.898 113.286 124.121C112.931 124.343 112.656 124.625 112.459 124.967C112.262 125.308 112.163 125.692 112.163 126.119C112.163 126.546 112.249 126.877 112.419 127.114C112.603 127.335 112.866 127.508 113.207 127.635C113.548 127.761 113.942 127.865 114.389 127.946C114.848 128.012 115.354 128.09 115.905 128.179C116.588 128.285 117.192 128.459 117.717 128.7C118.256 128.925 118.676 129.27 118.978 129.737C119.293 130.188 119.451 130.814 119.451 131.614C119.451 132.307 119.273 132.985 118.919 133.648C118.564 134.31 118.039 134.896 117.343 135.405C116.647 135.902 115.781 136.241 114.743 136.424ZM121.596 134.976V120.976L123.566 120.628V126.708L129.08 119.656L131.542 119.222L126.421 125.685L131.641 133.204L129.238 133.628L125.023 127.491L123.566 129.328V134.628L121.596 134.976ZM132.19 128.048V126.368L140.147 124.965V126.645L132.19 128.048ZM144.417 130.952V119.212L142.014 120.255V118.755L145.145 116.823L146.426 116.598V130.598L144.417 130.952ZM154.129 129.479C153.118 129.657 152.265 129.621 151.569 129.371C150.886 129.104 150.334 128.688 149.914 128.122C149.494 127.543 149.185 126.878 148.989 126.126C148.805 125.358 148.713 124.554 148.713 123.714C148.713 122.168 148.923 120.777 149.343 119.543C149.776 118.307 150.394 117.291 151.194 116.497C151.995 115.702 152.961 115.205 154.09 115.006C154.996 114.846 155.764 114.891 156.394 115.14C157.038 115.373 157.537 115.752 157.891 116.276C158.259 116.798 158.482 117.405 158.561 118.098L156.729 118.421C156.611 117.748 156.315 117.267 155.843 116.977C155.383 116.671 154.792 116.582 154.07 116.71C153.427 116.823 152.849 117.132 152.337 117.635C151.825 118.125 151.418 118.811 151.116 119.691C150.827 120.568 150.663 121.644 150.623 122.917C150.623 122.931 150.623 122.951 150.623 122.977C150.623 123.004 150.623 123.031 150.623 123.057C150.82 122.623 151.103 122.206 151.47 121.808C151.838 121.41 152.271 121.073 152.77 120.799C153.282 120.508 153.834 120.311 154.425 120.207C155.199 120.07 155.922 120.13 156.591 120.385C157.274 120.625 157.826 121.047 158.246 121.653C158.666 122.259 158.876 123.015 158.876 123.922C158.876 124.735 158.679 125.537 158.285 126.326C157.904 127.113 157.359 127.796 156.65 128.375C155.941 128.94 155.101 129.308 154.129 129.479ZM153.991 127.763C154.556 127.664 155.055 127.456 155.488 127.14C155.935 126.807 156.283 126.399 156.532 125.915C156.795 125.429 156.926 124.906 156.926 124.346C156.926 123.773 156.795 123.296 156.532 122.915C156.283 122.519 155.935 122.241 155.488 122.08C155.055 121.916 154.556 121.884 153.991 121.983C153.427 122.083 152.921 122.305 152.475 122.651C152.028 122.983 151.674 123.392 151.411 123.878C151.149 124.351 151.017 124.861 151.017 125.408C151.017 125.968 151.149 126.445 151.411 126.838C151.674 127.219 152.028 127.496 152.475 127.671C152.934 127.83 153.44 127.861 153.991 127.763Z" fill="#FF7700"/>
<path d="M61.0058 191.947C59.7925 192.161 58.7289 192.133 57.815 191.862C56.9011 191.575 56.1921 191.076 55.6878 190.365C55.1836 189.654 54.9315 188.762 54.9315 187.69L57.4132 187.253C57.429 187.858 57.5708 188.393 57.8387 188.858C58.1223 189.304 58.5241 189.633 59.0441 189.845C59.5798 190.039 60.2337 190.068 61.0058 189.931C61.6676 189.815 62.2348 189.603 62.7076 189.295C63.196 188.985 63.5663 188.616 63.8184 188.187C64.0705 187.743 64.1966 187.265 64.1966 186.753C64.1966 186.161 64.0626 185.696 63.7948 185.36C63.5269 185.023 63.1645 184.775 62.7076 184.615C62.2664 184.437 61.7464 184.305 61.1476 184.218C60.5646 184.129 59.9501 184.03 59.3041 183.919C57.9962 183.718 57.0193 183.33 56.3733 182.756C55.743 182.179 55.4279 181.339 55.4279 180.235C55.4279 179.291 55.6485 178.436 56.0896 177.67C56.5308 176.888 57.1454 176.236 57.9332 175.713C58.7368 175.171 59.6822 174.805 60.7695 174.613C61.8409 174.424 62.7785 174.459 63.5821 174.717C64.3857 174.975 65.0159 175.416 65.4729 176.04C65.9298 176.663 66.1583 177.447 66.1583 178.391L63.653 178.833C63.653 178.401 63.5427 177.996 63.3221 177.619C63.1015 177.242 62.7706 176.964 62.3294 176.786C61.8882 176.592 61.3446 176.552 60.6985 176.666C60.1628 176.744 59.6822 176.917 59.2568 177.184C58.8314 177.451 58.5005 177.789 58.2641 178.199C58.0277 178.608 57.9096 179.069 57.9096 179.581C57.9096 180.093 58.012 180.491 58.2168 180.775C58.4374 181.04 58.7526 181.249 59.1622 181.4C59.5719 181.552 60.0446 181.677 60.5804 181.774C61.1319 181.853 61.7385 181.946 62.4003 182.053C63.2197 182.181 63.9445 182.389 64.5747 182.678C65.2208 182.948 65.725 183.363 66.0874 183.923C66.4656 184.465 66.6547 185.215 66.6547 186.175C66.6547 187.007 66.4419 187.821 66.0165 188.616C65.5911 189.411 64.9608 190.114 64.1257 190.725C63.2906 191.321 62.2506 191.728 61.0058 191.947ZM73.0578 189.822C72.0809 189.995 71.2694 189.97 70.6234 189.748C69.9773 189.525 69.4968 189.162 69.1816 188.658C68.8665 188.137 68.7089 187.549 68.7089 186.893C68.7089 186.093 68.9138 185.377 69.3234 184.745C69.7331 184.097 70.3161 183.554 71.0724 183.116C71.8288 182.679 72.7348 182.367 73.7905 182.181L76.8868 181.635C76.8868 180.931 76.7843 180.365 76.5795 179.937C76.3747 179.509 76.0674 179.22 75.6577 179.068C75.2638 178.897 74.7596 178.866 74.1451 178.975C73.436 179.1 72.8293 179.383 72.3251 179.823C71.8209 180.248 71.5058 180.808 71.3797 181.502L69.0162 181.919C69.1107 181.054 69.3943 180.284 69.867 179.609C70.3555 178.915 70.9779 178.341 71.7342 177.888C72.4906 177.418 73.2942 177.109 74.1451 176.959C75.2638 176.761 76.2013 176.796 76.9577 177.063C77.714 177.329 78.2812 177.797 78.6594 178.467C79.0533 179.117 79.2503 179.946 79.2503 180.954V188.442L77.194 188.805L77.0049 186.798C76.8316 187.149 76.6268 187.489 76.3904 187.819C76.1541 188.148 75.8704 188.446 75.5395 188.713C75.2244 188.976 74.8541 189.202 74.4287 189.389C74.019 189.589 73.562 189.733 73.0578 189.822ZM73.5069 187.799C74.0111 187.71 74.4681 187.526 74.8777 187.245C75.2874 186.965 75.6341 186.624 75.9177 186.222C76.2171 185.801 76.4377 185.354 76.5795 184.881C76.7371 184.39 76.8237 183.902 76.8395 183.419V183.347L74.0269 183.843C73.3493 183.963 72.7978 184.148 72.3724 184.399C71.9627 184.631 71.6633 184.908 71.4743 185.229C71.2852 185.551 71.1906 185.904 71.1906 186.288C71.1906 186.688 71.2773 187.016 71.4506 187.274C71.6397 187.512 71.9076 187.681 72.2542 187.78C72.6009 187.879 73.0184 187.885 73.5069 187.799ZM82.0308 187.952V175.856L84.158 175.481L84.2998 177.52C84.6779 176.733 85.2137 176.071 85.907 175.533C86.6003 174.978 87.396 174.622 88.2942 174.464C89.2396 174.297 90.051 174.346 90.7286 174.61C91.4061 174.875 91.934 175.366 92.3122 176.083C92.6903 176.785 92.8794 177.719 92.8794 178.887V186.039L90.5159 186.456V179.544C90.5159 178.424 90.2716 177.619 89.7832 177.129C89.2947 176.639 88.5857 176.476 87.656 176.64C87.0415 176.749 86.49 176.998 86.0015 177.388C85.5131 177.762 85.1191 178.264 84.8198 178.892C84.5361 179.518 84.3943 180.247 84.3943 181.079V187.535L82.0308 187.952ZM95.8318 185.519V173.423L98.1953 173.006V185.102L95.8318 185.519ZM97.0372 170.93C96.5803 171.011 96.2021 170.933 95.9027 170.698C95.6191 170.46 95.4773 170.117 95.4773 169.669C95.4773 169.237 95.6191 168.86 95.9027 168.538C96.2021 168.197 96.5803 167.987 97.0372 167.906C97.4784 167.828 97.8487 167.907 98.1481 168.142C98.4475 168.361 98.5971 168.687 98.5971 169.119C98.5971 169.567 98.4475 169.961 98.1481 170.302C97.8487 170.643 97.4784 170.852 97.0372 170.93ZM106.255 183.681C105.499 183.814 104.845 183.809 104.293 183.667C103.742 183.524 103.316 183.199 103.017 182.692C102.718 182.184 102.568 181.451 102.568 180.491V174.275L100.512 174.637V172.597L102.568 172.235L102.852 169.161L104.931 168.794V171.818L108.311 171.222V173.262L104.931 173.858V180.098C104.931 180.786 105.073 181.233 105.357 181.439C105.64 181.629 106.129 181.663 106.822 181.541L108.193 181.299V183.339L106.255 183.681ZM110.847 182.871V170.775L113.21 170.358V182.454L110.847 182.871ZM112.052 168.283C111.595 168.363 111.217 168.286 110.918 168.051C110.634 167.813 110.492 167.47 110.492 167.022C110.492 166.59 110.634 166.213 110.918 165.891C111.217 165.55 111.595 165.339 112.052 165.259C112.493 165.181 112.864 165.259 113.163 165.495C113.462 165.714 113.612 166.039 113.612 166.471C113.612 166.919 113.462 167.314 113.163 167.655C112.864 167.995 112.493 168.205 112.052 168.283ZM115.574 182.038V180.094L121.979 170.828L115.668 171.941V169.925L124.673 168.337V170.305L118.245 179.575L124.792 178.42V180.412L115.574 182.038ZM132.562 179.33C131.428 179.53 130.419 179.444 129.537 179.071C128.655 178.699 127.961 178.085 127.457 177.23C126.969 176.372 126.724 175.319 126.724 174.071C126.724 172.791 126.969 171.636 127.457 170.606C127.961 169.557 128.655 168.691 129.537 168.007C130.419 167.308 131.444 166.855 132.61 166.65C133.776 166.444 134.776 166.532 135.611 166.912C136.446 167.293 137.092 167.883 137.549 168.683C138.006 169.466 138.235 170.386 138.235 171.442C138.235 171.602 138.227 171.779 138.211 171.974C138.211 172.15 138.203 172.351 138.188 172.578L128.45 174.295V172.591L135.871 171.283C135.824 170.283 135.493 169.557 134.879 169.106C134.264 168.638 133.5 168.485 132.586 168.646C131.94 168.76 131.349 169.016 130.813 169.414C130.278 169.797 129.844 170.305 129.513 170.94C129.198 171.555 129.041 172.295 129.041 173.159V173.831C129.041 174.727 129.198 175.459 129.513 176.028C129.844 176.577 130.278 176.965 130.813 177.19C131.349 177.4 131.932 177.449 132.562 177.338C133.319 177.205 133.941 176.927 134.43 176.505C134.918 176.083 135.28 175.563 135.517 174.945L137.88 174.528C137.675 175.3 137.329 176.026 136.84 176.704C136.352 177.366 135.745 177.929 135.02 178.393C134.311 178.854 133.492 179.166 132.562 179.33ZM157.071 174.72V157.92L159.435 157.504V174.304L157.071 174.72ZM146.554 176.575V159.775L148.917 159.358V176.158L146.554 176.575ZM148.515 168.645V166.677L157.591 165.077V167.045L148.515 168.645ZM166.511 173.056V158.224L161.619 159.087V157.119L173.791 154.972V156.94L168.875 157.807V172.639L166.511 173.056ZM175.948 171.392V154.592L178.737 154.1L184.339 164.464L189.917 152.129L192.729 151.633V168.433L190.366 168.85V156.25L185.237 167.402L183.417 167.723L178.312 158.399V170.975L175.948 171.392ZM195.931 167.868V151.068L198.295 150.652V165.556L205.858 164.222V166.118L195.931 167.868ZM214.082 164.668V152.572L216.21 152.197L216.375 153.872C216.753 153.181 217.257 152.604 217.888 152.141C218.518 151.678 219.227 151.377 220.015 151.238C220.614 151.132 221.157 151.124 221.646 151.214C222.134 151.288 222.568 151.46 222.946 151.729C223.324 151.998 223.631 152.36 223.867 152.814C224.293 152.035 224.86 151.383 225.569 150.858C226.294 150.331 227.058 149.996 227.862 149.854C228.823 149.685 229.65 149.739 230.344 150.017C231.037 150.278 231.565 150.769 231.927 151.489C232.29 152.193 232.471 153.121 232.471 154.273V161.425L230.131 161.838V154.926C230.131 153.806 229.902 152.998 229.445 152.503C229.004 152.005 228.35 151.832 227.484 151.985C226.901 152.088 226.381 152.331 225.924 152.716C225.467 153.1 225.104 153.604 224.837 154.228C224.584 154.848 224.458 155.574 224.458 156.406V162.838L222.095 163.255V156.343C222.095 155.223 221.866 154.415 221.409 153.92C220.968 153.422 220.314 153.249 219.448 153.402C218.896 153.499 218.392 153.74 217.935 154.125C217.478 154.509 217.116 155.013 216.848 155.636C216.58 156.259 216.446 156.987 216.446 157.819V164.251L214.082 164.668ZM240.678 160.266C239.543 160.466 238.535 160.38 237.652 160.008C236.77 159.635 236.077 159.022 235.572 158.167C235.084 157.309 234.84 156.256 234.84 155.008C234.84 153.728 235.084 152.573 235.572 151.543C236.077 150.494 236.77 149.627 237.652 148.944C238.535 148.244 239.559 147.792 240.725 147.586C241.891 147.38 242.891 147.468 243.727 147.849C244.562 148.23 245.208 148.82 245.665 149.619C246.122 150.402 246.35 151.322 246.35 152.378C246.35 152.538 246.342 152.716 246.326 152.91C246.326 153.086 246.319 153.288 246.303 153.515L236.565 155.232V153.528L243.987 152.219C243.939 151.219 243.608 150.494 242.994 150.042C242.379 149.574 241.615 149.421 240.701 149.582C240.055 149.696 239.464 149.952 238.929 150.351C238.393 150.733 237.96 151.242 237.629 151.876C237.313 152.492 237.156 153.231 237.156 154.095V154.767C237.156 155.663 237.313 156.396 237.629 156.964C237.96 157.514 238.393 157.901 238.929 158.127C239.464 158.336 240.047 158.386 240.678 158.274C241.434 158.141 242.056 157.863 242.545 157.441C243.033 157.019 243.396 156.499 243.632 155.881L245.996 155.465C245.791 156.237 245.444 156.962 244.956 157.64C244.467 158.302 243.86 158.865 243.136 159.329C242.427 159.79 241.607 160.102 240.678 160.266ZM253.349 158.032C252.34 158.21 251.458 158.198 250.701 157.995C249.945 157.792 249.346 157.426 248.905 156.896C248.464 156.365 248.196 155.701 248.101 154.901L250.512 154.476C250.591 154.846 250.741 155.172 250.961 155.453C251.198 155.731 251.513 155.932 251.907 156.054C252.316 156.174 252.797 156.185 253.349 156.088C253.869 155.996 254.294 155.849 254.625 155.647C254.972 155.426 255.224 155.174 255.381 154.89C255.539 154.59 255.618 154.288 255.618 153.984C255.618 153.536 255.507 153.22 255.287 153.034C255.082 152.831 254.767 152.702 254.341 152.649C253.932 152.577 253.435 152.537 252.852 152.528C252.301 152.529 251.765 152.495 251.245 152.427C250.741 152.34 250.284 152.205 249.874 152.021C249.48 151.834 249.165 151.57 248.929 151.227C248.692 150.869 248.574 150.402 248.574 149.826C248.574 149.138 248.755 148.49 249.118 147.882C249.48 147.258 249.992 146.736 250.654 146.315C251.332 145.876 252.127 145.575 253.041 145.414C254.365 145.181 255.428 145.313 256.232 145.812C257.036 146.31 257.508 147.131 257.65 148.274L255.358 148.678C255.295 148.145 255.058 147.771 254.648 147.555C254.239 147.323 253.695 147.267 253.018 147.386C252.34 147.506 251.82 147.734 251.458 148.07C251.095 148.405 250.914 148.797 250.914 149.245C250.914 149.533 251.017 149.771 251.221 149.959C251.426 150.147 251.726 150.286 252.12 150.377C252.529 150.449 253.026 150.497 253.609 150.522C254.444 150.535 255.192 150.603 255.854 150.726C256.516 150.85 257.044 151.109 257.437 151.503C257.831 151.898 258.028 152.527 258.028 153.391C258.044 154.14 257.855 154.838 257.461 155.483C257.083 156.126 256.539 156.67 255.83 157.115C255.137 157.557 254.31 157.863 253.349 158.032ZM265.184 155.945C264.175 156.123 263.293 156.111 262.537 155.908C261.78 155.705 261.182 155.339 260.74 154.809C260.299 154.279 260.031 153.614 259.937 152.814L262.348 152.389C262.426 152.759 262.576 153.085 262.797 153.366C263.033 153.645 263.348 153.845 263.742 153.968C264.152 154.087 264.632 154.099 265.184 154.001C265.704 153.91 266.129 153.763 266.46 153.56C266.807 153.339 267.059 153.087 267.216 152.803C267.374 152.503 267.453 152.201 267.453 151.897C267.453 151.449 267.342 151.133 267.122 150.948C266.917 150.744 266.602 150.615 266.176 150.562C265.767 150.49 265.27 150.45 264.687 150.441C264.136 150.442 263.6 150.409 263.08 150.34C262.576 150.253 262.119 150.118 261.709 149.934C261.315 149.747 261 149.483 260.764 149.141C260.528 148.782 260.409 148.315 260.409 147.739C260.409 147.051 260.591 146.403 260.953 145.795C261.315 145.171 261.828 144.649 262.489 144.228C263.167 143.789 263.963 143.489 264.877 143.327C266.2 143.094 267.264 143.227 268.067 143.725C268.871 144.223 269.344 145.044 269.485 146.187L267.193 146.591C267.13 146.058 266.893 145.684 266.484 145.468C266.074 145.236 265.53 145.18 264.853 145.3C264.175 145.419 263.655 145.647 263.293 145.983C262.931 146.319 262.749 146.711 262.749 147.159C262.749 147.447 262.852 147.684 263.057 147.872C263.261 148.06 263.561 148.199 263.955 148.29C264.364 148.362 264.861 148.41 265.444 148.435C266.279 148.448 267.027 148.516 267.689 148.64C268.351 148.763 268.879 149.022 269.273 149.416C269.667 149.811 269.864 150.44 269.864 151.304C269.879 152.053 269.69 152.751 269.296 153.396C268.918 154.039 268.375 154.583 267.665 155.028C266.972 155.47 266.145 155.776 265.184 155.945ZM276.357 153.975C275.38 154.147 274.569 154.122 273.923 153.9C273.277 153.678 272.796 153.315 272.481 152.811C272.166 152.29 272.008 151.702 272.008 151.046C272.008 150.246 272.213 149.53 272.623 148.898C273.033 148.249 273.616 147.707 274.372 147.269C275.128 146.832 276.034 146.52 277.09 146.334L280.186 145.788C280.186 145.084 280.084 144.518 279.879 144.09C279.674 143.662 279.367 143.372 278.957 143.221C278.563 143.05 278.059 143.019 277.444 143.127C276.735 143.252 276.129 143.535 275.625 143.976C275.12 144.401 274.805 144.961 274.679 145.655L272.316 146.072C272.41 145.207 272.694 144.437 273.166 143.762C273.655 143.068 274.277 142.494 275.034 142.04C275.79 141.571 276.594 141.261 277.444 141.111C278.563 140.914 279.501 140.949 280.257 141.215C281.013 141.482 281.581 141.95 281.959 142.619C282.353 143.27 282.55 144.099 282.55 145.107V152.595L280.493 152.958L280.304 150.951C280.131 151.302 279.926 151.642 279.69 151.971C279.453 152.301 279.17 152.599 278.839 152.866C278.524 153.129 278.154 153.354 277.728 153.541C277.318 153.742 276.861 153.886 276.357 153.975ZM276.806 151.952C277.311 151.863 277.767 151.678 278.177 151.398C278.587 151.118 278.933 150.777 279.217 150.375C279.516 149.954 279.737 149.507 279.879 149.034C280.036 148.542 280.123 148.055 280.139 147.572V147.5L277.326 147.996C276.649 148.116 276.097 148.301 275.672 148.552C275.262 148.784 274.963 149.061 274.774 149.382C274.585 149.704 274.49 150.056 274.49 150.44C274.49 150.84 274.577 151.169 274.75 151.426C274.939 151.665 275.207 151.834 275.554 151.933C275.9 152.032 276.318 152.038 276.806 151.952ZM290.175 156.819C289.088 157.01 288.127 157.036 287.292 156.895C286.457 156.77 285.811 156.46 285.354 155.965C284.897 155.469 284.668 154.806 284.668 153.974C284.668 153.542 284.763 153.085 284.952 152.604C285.141 152.138 285.448 151.668 285.874 151.193C286.299 150.718 286.874 150.257 287.599 149.809L288.923 150.655C288.119 151.101 287.576 151.557 287.292 152.023C287.024 152.502 286.89 152.942 286.89 153.342C286.89 153.822 287.032 154.197 287.316 154.467C287.599 154.737 287.985 154.909 288.474 154.983C288.978 155.054 289.545 155.034 290.175 154.923C290.79 154.814 291.326 154.632 291.783 154.375C292.24 154.119 292.594 153.808 292.846 153.444C293.098 153.079 293.224 152.681 293.224 152.249C293.224 151.737 293.035 151.338 292.657 151.053C292.279 150.784 291.554 150.711 290.483 150.836C289.585 150.931 288.82 150.978 288.19 150.977C287.576 150.973 287.048 150.93 286.606 150.848C286.181 150.763 285.819 150.651 285.519 150.512C285.236 150.37 284.991 150.213 284.787 150.041V149.489L287.15 146.6L289.065 146.934L286.488 149.813L286.985 148.645C287.158 148.727 287.323 148.809 287.481 148.894C287.639 148.962 287.851 149.012 288.119 149.045C288.387 149.078 288.749 149.086 289.206 149.069C289.663 149.053 290.262 149.011 291.003 148.945C292.074 148.836 292.933 148.876 293.579 149.066C294.241 149.254 294.721 149.577 295.021 150.036C295.32 150.495 295.47 151.077 295.47 151.781C295.47 152.469 295.281 153.158 294.903 153.849C294.54 154.537 293.965 155.15 293.177 155.689C292.405 156.225 291.404 156.602 290.175 156.819ZM290.175 147.531C289.167 147.708 288.308 147.668 287.599 147.409C286.906 147.147 286.37 146.722 285.992 146.132C285.63 145.54 285.448 144.844 285.448 144.044C285.448 143.228 285.63 142.468 285.992 141.764C286.37 141.042 286.914 140.426 287.623 139.917C288.332 139.392 289.183 139.042 290.175 138.867C291.168 138.692 292.011 138.743 292.704 139.021C293.413 139.28 293.949 139.705 294.312 140.297C294.69 140.871 294.879 141.565 294.879 142.381C294.879 143.181 294.69 143.943 294.312 144.665C293.949 145.385 293.413 146 292.704 146.509C292.011 147.015 291.168 147.356 290.175 147.531ZM290.175 145.611C290.948 145.474 291.562 145.166 292.019 144.686C292.476 144.189 292.704 143.549 292.704 142.765C292.704 141.981 292.476 141.429 292.019 141.11C291.562 140.774 290.948 140.674 290.175 140.811C289.403 140.947 288.781 141.264 288.308 141.764C287.836 142.247 287.599 142.881 287.599 143.665C287.599 144.449 287.836 145.007 288.308 145.34C288.781 145.656 289.403 145.747 290.175 145.611ZM292.114 140.709L291.546 138.913L296.439 138.05V139.706L292.114 140.709ZM303.501 149.189C302.366 149.389 301.358 149.303 300.475 148.93C299.593 148.558 298.9 147.944 298.395 147.089C297.907 146.231 297.663 145.178 297.663 143.93C297.663 142.65 297.907 141.495 298.395 140.465C298.9 139.416 299.593 138.55 300.475 137.866C301.358 137.167 302.382 136.714 303.548 136.509C304.714 136.303 305.714 136.391 306.55 136.771C307.385 137.152 308.031 137.742 308.488 138.542C308.945 139.325 309.173 140.245 309.173 141.301C309.173 141.461 309.165 141.638 309.149 141.833C309.149 142.009 309.142 142.21 309.126 142.437L299.388 144.154V142.45L306.81 141.142C306.762 140.142 306.431 139.416 305.817 138.965C305.202 138.497 304.438 138.344 303.524 138.505C302.878 138.619 302.287 138.875 301.752 139.273C301.216 139.656 300.783 140.164 300.452 140.799C300.137 141.414 299.979 142.154 299.979 143.018V143.69C299.979 144.586 300.137 145.318 300.452 145.887C300.783 146.436 301.216 146.824 301.752 147.049C302.287 147.259 302.87 147.308 303.501 147.197C304.257 147.064 304.879 146.786 305.368 146.364C305.856 145.942 306.219 145.422 306.455 144.804L308.819 144.387C308.614 145.159 308.267 145.885 307.779 146.563C307.29 147.225 306.684 147.788 305.959 148.252C305.25 148.713 304.43 149.025 303.501 149.189ZM322.881 145.772C321.73 145.975 320.706 145.891 319.808 145.522C318.91 145.136 318.201 144.517 317.681 143.665C317.177 142.81 316.925 141.758 316.925 140.51C316.925 139.246 317.177 138.098 317.681 137.065C318.201 136.013 318.91 135.144 319.808 134.458C320.706 133.755 321.73 133.303 322.881 133.1C324.33 132.844 325.544 133.014 326.521 133.61C327.497 134.206 328.12 135.136 328.388 136.401L325.93 136.834C325.772 136.158 325.41 135.678 324.842 135.394C324.291 135.107 323.629 135.032 322.857 135.168C322.227 135.279 321.644 135.55 321.108 135.98C320.572 136.395 320.139 136.951 319.808 137.65C319.493 138.329 319.335 139.133 319.335 140.061C319.335 140.749 319.43 141.348 319.619 141.859C319.808 142.354 320.06 142.757 320.375 143.07C320.706 143.379 321.084 143.592 321.51 143.709C321.935 143.81 322.384 143.819 322.857 143.736C323.377 143.644 323.842 143.482 324.252 143.25C324.677 142.999 325.032 142.681 325.315 142.295C325.615 141.906 325.819 141.47 325.93 140.986L328.388 140.553C328.12 141.88 327.497 143.022 326.521 143.978C325.544 144.918 324.33 145.516 322.881 145.772ZM336.353 143.396C335.234 143.593 334.226 143.507 333.328 143.138C332.445 142.765 331.744 142.153 331.224 141.301C330.72 140.429 330.468 139.37 330.468 138.122C330.468 136.842 330.728 135.684 331.248 134.648C331.768 133.597 332.477 132.728 333.375 132.041C334.273 131.355 335.282 130.913 336.4 130.716C337.535 130.516 338.543 130.602 339.426 130.974C340.308 131.347 341.001 131.961 341.506 132.816C342.026 133.668 342.286 134.734 342.286 136.014C342.286 137.294 342.026 138.452 341.506 139.488C341.001 140.521 340.3 141.38 339.402 142.067C338.504 142.753 337.488 143.196 336.353 143.396ZM336.353 141.332C336.999 141.218 337.582 140.956 338.102 140.544C338.638 140.129 339.063 139.582 339.378 138.903C339.709 138.204 339.875 137.383 339.875 136.439C339.875 135.495 339.717 134.739 339.402 134.171C339.087 133.586 338.661 133.181 338.126 132.956C337.606 132.727 337.031 132.669 336.4 132.78C335.77 132.891 335.187 133.154 334.651 133.568C334.116 133.983 333.682 134.539 333.351 135.237C333.036 135.917 332.879 136.729 332.879 137.673C332.879 138.617 333.036 139.381 333.351 139.965C333.682 140.531 334.108 140.928 334.628 141.156C335.163 141.382 335.739 141.441 336.353 141.332ZM344.829 141.614V129.518L346.957 129.143L347.098 131.182C347.477 130.395 348.012 129.732 348.706 129.194C349.399 128.64 350.195 128.284 351.093 128.125C352.038 127.958 352.85 128.007 353.527 128.272C354.205 128.536 354.733 129.027 355.111 129.745C355.489 130.446 355.678 131.381 355.678 132.549V139.701L353.315 140.117V133.205C353.315 132.085 353.07 131.281 352.582 130.791C352.093 130.301 351.384 130.138 350.455 130.302C349.84 130.41 349.289 130.659 348.8 131.049C348.312 131.424 347.918 131.925 347.618 132.554C347.335 133.18 347.193 133.909 347.193 134.741V141.197L344.829 141.614ZM363.381 138.342C362.625 138.476 361.971 138.471 361.419 138.328C360.868 138.186 360.443 137.861 360.143 137.353C359.844 136.846 359.694 136.113 359.694 135.153V128.937L357.638 129.299V127.259L359.694 126.897L359.978 123.823L362.058 123.456V126.48L365.438 125.884V127.924L362.058 128.52V134.76C362.058 135.448 362.199 135.895 362.483 136.101C362.767 136.291 363.255 136.325 363.948 136.202L365.319 135.961V138.001L363.381 138.342ZM372.873 136.957C371.739 137.157 370.73 137.071 369.848 136.698C368.966 136.326 368.272 135.712 367.768 134.857C367.28 133.999 367.035 132.946 367.035 131.698C367.035 130.418 367.28 129.263 367.768 128.233C368.272 127.184 368.966 126.318 369.848 125.634C370.73 124.935 371.755 124.482 372.921 124.276C374.087 124.071 375.087 124.158 375.922 124.539C376.757 124.92 377.403 125.51 377.86 126.309C378.317 127.093 378.546 128.013 378.546 129.069C378.546 129.229 378.538 129.406 378.522 129.601C378.522 129.777 378.514 129.978 378.498 130.205L368.761 131.922V130.218L376.182 128.909C376.135 127.91 375.804 127.184 375.19 126.732C374.575 126.265 373.811 126.111 372.897 126.273C372.251 126.386 371.66 126.643 371.124 127.041C370.588 127.424 370.155 127.932 369.824 128.566C369.509 129.182 369.352 129.922 369.352 130.786V131.458C369.352 132.354 369.509 133.086 369.824 133.654C370.155 134.204 370.588 134.592 371.124 134.817C371.66 135.027 372.243 135.076 372.873 134.965C373.63 134.831 374.252 134.554 374.74 134.131C375.229 133.709 375.591 133.189 375.828 132.572L378.191 132.155C377.986 132.927 377.64 133.652 377.151 134.33C376.663 134.993 376.056 135.555 375.331 136.019C374.622 136.48 373.803 136.793 372.873 136.957ZM380.935 135.247V123.151L383.062 122.776L383.204 124.815C383.582 124.028 384.118 123.366 384.812 122.828C385.505 122.273 386.301 121.917 387.199 121.759C388.144 121.592 388.956 121.641 389.633 121.906C390.311 122.17 390.839 122.661 391.217 123.378C391.595 124.08 391.784 125.014 391.784 126.182V133.334L389.42 133.751V126.839C389.42 125.719 389.176 124.914 388.688 124.424C388.199 123.934 387.49 123.771 386.561 123.935C385.946 124.044 385.395 124.293 384.906 124.683C384.418 125.057 384.024 125.559 383.724 126.187C383.441 126.813 383.299 127.542 383.299 128.374V134.83L380.935 135.247ZM399.487 131.976C398.731 132.109 398.077 132.105 397.525 131.962C396.974 131.819 396.548 131.494 396.249 130.987C395.95 130.48 395.8 129.746 395.8 128.786V122.57L393.744 122.933V120.893L395.8 120.53L396.084 117.456L398.163 117.089V120.113L401.543 119.517V121.557L398.163 122.153V128.393C398.163 129.081 398.305 129.528 398.589 129.734C398.873 129.924 399.361 129.958 400.054 129.836L401.425 129.594V131.634L399.487 131.976Z" fill="black"/>
<path d="M54.2815 242.543L58.078 231.373L59.6881 231.089L63.4846 240.92L61.904 241.199L58.8757 233.032L55.8326 242.269L54.2815 242.543ZM55.9951 239.645L56.4087 238.372L61.2688 237.516L61.6824 238.643L55.9951 239.645ZM67.3249 240.423C66.7438 240.525 66.2366 240.495 65.8033 240.331C65.3799 240.166 65.05 239.864 64.8136 239.425C64.5871 238.975 64.4738 238.385 64.4738 237.655V233.2L65.951 232.94V237.245C65.951 237.955 66.0988 238.464 66.3942 238.772C66.6995 239.078 67.1427 239.18 67.7237 239.077C68.1078 239.01 68.4525 238.854 68.7578 238.61C69.0729 238.364 69.3191 238.046 69.4964 237.655C69.6736 237.264 69.7623 236.808 69.7623 236.288V232.268L71.2395 232.007V239.552L69.9247 239.784L69.8213 238.512C69.5948 239.002 69.26 239.421 68.8168 239.77C68.3835 240.106 67.8862 240.324 67.3249 240.423ZM76.1425 242.168C75.463 242.288 74.8623 242.304 74.3403 242.216C73.8184 242.138 73.4146 241.944 73.129 241.634C72.8434 241.325 72.7006 240.91 72.7006 240.39C72.7006 240.12 72.7597 239.834 72.8779 239.534C72.9961 239.243 73.1881 238.949 73.454 238.652C73.7199 238.355 74.0794 238.067 74.5324 237.787L75.3448 238.319C74.8524 238.595 74.5176 238.879 74.3403 239.171C74.1729 239.47 74.0892 239.745 74.0892 239.995C74.0892 240.295 74.1778 240.529 74.3551 240.698C74.5324 240.867 74.7737 240.974 75.0789 241.02C75.3941 241.065 75.7486 241.052 76.1425 240.983C76.5266 240.915 76.8565 240.802 77.1323 240.643C77.4179 240.483 77.6394 240.289 77.797 240.061C77.9546 239.833 78.0334 239.584 78.0334 239.314C78.0334 238.994 77.9152 238.745 77.6788 238.567C77.4523 238.397 77.0042 238.351 76.3346 238.429C75.7732 238.488 75.2956 238.517 74.9017 238.517C74.5176 238.514 74.1877 238.488 73.912 238.436C73.6461 238.383 73.4195 238.313 73.2324 238.226C73.0552 238.137 72.9025 238.039 72.7745 237.932V237.587L74.2517 235.781L75.4335 235.993L73.8381 237.789L74.1483 237.059C74.2566 237.12 74.36 237.172 74.4585 237.215C74.557 237.257 74.6899 237.289 74.8574 237.309C75.0248 237.33 75.2513 237.335 75.5369 237.325C75.8225 237.314 76.1967 237.288 76.6596 237.247C77.3194 237.18 77.8561 237.206 78.2697 237.323C78.6833 237.44 78.9837 237.642 79.1708 237.929C79.3579 238.216 79.4515 238.579 79.4515 239.019C79.4515 239.449 79.3333 239.88 79.097 240.312C78.8606 240.744 78.4962 241.128 78.0038 241.465C77.5213 241.8 76.9008 242.034 76.1425 242.168ZM76.1278 236.365C75.5073 236.475 74.9755 236.449 74.5324 236.287C74.0991 236.123 73.7642 235.857 73.5279 235.489C73.3014 235.119 73.1881 234.684 73.1881 234.184C73.1881 233.684 73.3014 233.214 73.5279 232.774C73.7642 232.322 74.0991 231.938 74.5324 231.622C74.9755 231.294 75.5073 231.075 76.1278 230.965C76.758 230.854 77.2898 230.886 77.7232 231.059C78.1663 231.221 78.5012 231.487 78.7277 231.857C78.964 232.215 79.0822 232.645 79.0822 233.145C79.0822 233.645 78.964 234.12 78.7277 234.572C78.5012 235.022 78.1663 235.406 77.7232 235.724C77.2898 236.041 76.758 236.254 76.1278 236.365ZM76.1278 235.165C76.6103 235.08 76.9944 234.888 77.28 234.587C77.5754 234.275 77.7232 233.874 77.7232 233.384C77.7232 232.904 77.5754 232.565 77.28 232.367C76.9944 232.158 76.6103 232.095 76.1278 232.18C75.6551 232.264 75.271 232.462 74.9755 232.774C74.6801 233.076 74.5324 233.467 74.5324 233.947C74.5324 234.437 74.6801 234.786 74.9755 234.994C75.271 235.192 75.6551 235.249 76.1278 235.165ZM77.3539 232.114L76.9993 230.992L80.0424 230.455V231.49L77.3539 232.114ZM84.8757 237.148V236.068C85.5651 235.406 86.2151 234.747 86.8257 234.089C87.4461 233.43 87.9976 232.787 88.4801 232.162C88.9725 231.526 89.3566 230.923 89.6324 230.354C89.918 229.774 90.0608 229.244 90.0608 228.764C90.0608 228.424 90.0017 228.119 89.8835 227.85C89.7653 227.581 89.5733 227.38 89.3074 227.247C89.0513 227.102 88.7066 227.067 88.2733 227.144C87.8499 227.219 87.4953 227.376 87.2097 227.616C86.9241 227.857 86.7075 228.15 86.5598 228.496C86.4219 228.83 86.353 229.187 86.353 229.567L84.9348 229.818C84.9447 229.096 85.0973 228.459 85.3928 227.907C85.6882 227.355 86.0871 226.904 86.5893 226.556C87.0916 226.207 87.6628 225.977 88.3029 225.864C88.9528 225.749 89.5191 225.774 90.0017 225.939C90.4842 226.094 90.8585 226.383 91.1244 226.806C91.4001 227.218 91.538 227.758 91.538 228.428C91.538 228.908 91.4444 229.405 91.2573 229.918C91.0702 230.421 90.8141 230.926 90.4891 231.433C90.1642 231.94 89.8047 232.439 89.4108 232.928C89.0169 233.408 88.6131 233.869 88.1995 234.312C87.7859 234.755 87.387 235.16 87.0029 235.528L91.8482 234.674V235.919L84.8757 237.148ZM97.213 235.153C96.4547 235.286 95.8146 235.259 95.2926 235.071C94.7805 234.871 94.3669 234.559 94.0518 234.135C93.7366 233.701 93.5052 233.201 93.3575 232.637C93.2196 232.062 93.1507 231.459 93.1507 230.829C93.1507 229.669 93.3082 228.626 93.6234 227.701C93.9484 226.773 94.4112 226.012 95.012 225.416C95.6127 224.82 96.3365 224.447 97.1835 224.298C97.863 224.178 98.4391 224.211 98.9118 224.398C99.3944 224.573 99.7686 224.857 100.034 225.25C100.31 225.641 100.478 226.097 100.537 226.617L99.1629 226.859C99.0644 226.356 98.8429 225.995 98.4982 225.776C98.1535 225.547 97.7103 225.48 97.1687 225.575C96.6861 225.66 96.2528 225.892 95.8687 226.27C95.4847 226.637 95.1794 227.151 94.9529 227.811C94.7362 228.459 94.6131 229.266 94.5836 230.231C94.5836 230.241 94.5836 230.256 94.5836 230.276C94.5836 230.296 94.5836 230.316 94.5836 230.336C94.7313 230.01 94.943 229.698 95.2188 229.399C95.4945 229.101 95.8195 228.848 96.1937 228.642C96.5778 228.425 96.9914 228.277 97.4346 228.199C98.0156 228.096 98.5573 228.141 99.0595 228.332C99.5716 228.512 99.9852 228.829 100.3 229.283C100.616 229.738 100.773 230.305 100.773 230.985C100.773 231.595 100.625 232.196 100.33 232.788C100.044 233.378 99.6356 233.89 99.1038 234.324C98.572 234.748 97.9418 235.024 97.213 235.153ZM97.1096 233.866C97.5331 233.791 97.9122 233.629 98.247 233.38C98.5819 233.131 98.8429 232.83 99.03 232.477C99.2171 232.114 99.3106 231.723 99.3106 231.303C99.3106 230.873 99.2171 230.514 99.03 230.227C98.8429 229.93 98.5819 229.721 98.247 229.6C97.9122 229.479 97.5331 229.456 97.1096 229.531C96.6861 229.605 96.307 229.772 95.9721 230.031C95.6373 230.28 95.3714 230.587 95.1744 230.952C94.9775 231.307 94.879 231.689 94.879 232.099C94.879 232.519 94.9775 232.877 95.1744 233.172C95.3714 233.457 95.6373 233.665 95.9721 233.796C96.3168 233.916 96.696 233.939 97.1096 233.866Z" fill="black"/>
</g>
<defs>
<filter id="filter0_d_513_328" x="0.200001" y="-1.8" width="495.02" height="298.256" filterUnits="userSpaceOnUse" color-interpolation-filters="sRGB">
<feFlood flood-opacity="0" result="BackgroundImageFix"/>
<feColorMatrix in="SourceAlpha" type="matrix" values="0 0 0 0 0 0 0 0 0 0 0 0 0 0 0 0 0 0 127 0" result="hardAlpha"/>
<feOffset dx="-8" dy="-2"/>
<feGaussianBlur stdDeviation="9.4"/>
<feComposite in2="hardAlpha" operator="out"/>
<feColorMatrix type="matrix" values="0 0 0 0 0 0 0 0 0 0 0 0 0 0 0 0 0 0 0.11 0"/>
<feBlend mode="normal" in2="BackgroundImageFix" result="effect1_dropShadow_513_328"/>
<feBlend mode="normal" in="SourceGraphic" in2="effect1_dropShadow_513_328" result="shape"/>
</filter>
</defs>
</svg>
