<svg width="496" height="295" viewBox="0 0 496 295" fill="none" xmlns="http://www.w3.org/2000/svg">
<g filter="url(#filter0_d_513_334)">
<rect x="0.492404" y="0.413176" width="463.477" height="179" rx="13.5" transform="matrix(0.984808 -0.173648 0 1 27.0075 99.741)" fill="#F6F4F1" stroke="#D8D8D8"/>
<path d="M61.4047 123.898C58.9651 124.328 56.5803 125.466 54.5519 127.168C52.5235 128.87 50.9426 131.06 50.009 133.46C49.0754 135.861 48.8311 138.364 49.3071 140.654C49.783 142.943 50.9578 144.917 52.6828 146.324C54.4078 147.731 56.6056 148.508 58.9983 148.559C61.391 148.609 63.8711 147.929 66.1249 146.606C68.3788 145.282 70.3052 143.374 71.6605 141.123C73.0158 138.872 73.7393 136.379 73.7393 133.959C73.7358 130.715 72.4352 127.834 70.1227 125.948C67.8103 124.062 64.6749 123.324 61.4047 123.898ZM66.82 133.021L60.1783 140.781C60.0902 140.884 59.9856 140.972 59.8704 141.039C59.7552 141.107 59.6317 141.153 59.507 141.175C59.3823 141.197 59.2589 141.194 59.1437 141.167C59.0285 141.14 58.9239 141.089 58.8357 141.017L55.9893 138.696C55.8113 138.55 55.7112 138.328 55.7112 138.079C55.7112 137.829 55.8113 137.572 55.9893 137.364C56.1673 137.156 56.4088 137.014 56.6606 136.97C56.9124 136.925 57.1538 136.982 57.3319 137.127L59.507 138.902L65.4775 131.926C65.5656 131.823 65.6703 131.735 65.7854 131.667C65.9006 131.6 66.0241 131.554 66.1487 131.532C66.2734 131.51 66.3969 131.512 66.512 131.539C66.6272 131.566 66.7319 131.617 66.82 131.689C66.9082 131.761 66.9781 131.852 67.0258 131.958C67.0735 132.064 67.0981 132.182 67.0981 132.306C67.0981 132.43 67.0735 132.556 67.0258 132.679C66.9781 132.802 66.9082 132.918 66.82 133.021Z" fill="#FF7700"/>
<path d="M90.7367 140.417V128.057L86.6596 128.776V127.136L96.8031 125.347V126.987L92.7063 127.71V140.07L90.7367 140.417ZM96.1948 139.455L101.257 124.562L103.404 124.183L108.466 137.291L106.358 137.662L102.32 126.774L98.2629 139.09L96.1948 139.455ZM98.4796 135.592L99.0311 133.894L105.511 132.752L106.063 134.255L98.4796 135.592ZM114.743 136.424C113.732 136.602 112.846 136.578 112.084 136.353C111.323 136.114 110.732 135.698 110.312 135.105C109.892 134.513 109.681 133.77 109.681 132.876L111.75 132.512C111.763 133.016 111.881 133.462 112.104 133.849C112.34 134.221 112.675 134.495 113.109 134.672C113.555 134.833 114.1 134.857 114.743 134.744C115.295 134.647 115.768 134.47 116.161 134.214C116.569 133.955 116.877 133.648 117.087 133.291C117.297 132.92 117.402 132.522 117.402 132.095C117.402 131.602 117.291 131.215 117.068 130.934C116.844 130.653 116.542 130.447 116.161 130.314C115.794 130.165 115.361 130.055 114.862 129.983C114.376 129.909 113.864 129.826 113.325 129.734C112.235 129.566 111.421 129.243 110.883 128.765C110.358 128.284 110.095 127.584 110.095 126.664C110.095 125.877 110.279 125.164 110.647 124.526C111.014 123.875 111.526 123.331 112.183 122.895C112.853 122.444 113.64 122.138 114.546 121.979C115.439 121.821 116.221 121.85 116.89 122.065C117.56 122.281 118.085 122.648 118.466 123.168C118.847 123.687 119.037 124.34 119.037 125.127L116.949 125.495C116.949 125.135 116.857 124.798 116.674 124.484C116.49 124.169 116.214 123.938 115.846 123.789C115.479 123.628 115.026 123.594 114.487 123.689C114.041 123.754 113.64 123.898 113.286 124.121C112.931 124.343 112.656 124.625 112.459 124.967C112.262 125.308 112.163 125.692 112.163 126.119C112.163 126.546 112.249 126.877 112.419 127.114C112.603 127.335 112.866 127.508 113.207 127.635C113.548 127.761 113.942 127.865 114.389 127.946C114.848 128.012 115.354 128.09 115.905 128.179C116.588 128.285 117.192 128.459 117.717 128.7C118.256 128.925 118.676 129.27 118.978 129.737C119.293 130.188 119.451 130.814 119.451 131.614C119.451 132.307 119.273 132.985 118.919 133.648C118.564 134.31 118.039 134.896 117.343 135.405C116.647 135.902 115.781 136.241 114.743 136.424ZM121.596 134.976V120.976L123.566 120.628V126.708L129.08 119.656L131.542 119.222L126.421 125.685L131.641 133.204L129.238 133.628L125.023 127.491L123.566 129.328V134.628L121.596 134.976ZM132.19 128.048V126.368L140.147 124.965V126.645L132.19 128.048ZM144.417 130.952V119.212L142.014 120.255V118.755L145.145 116.823L146.426 116.598V130.598L144.417 130.952ZM153.735 129.549C152.829 129.708 152.009 129.686 151.273 129.483C150.551 129.263 149.973 128.885 149.54 128.348C149.12 127.809 148.91 127.133 148.91 126.319C148.91 125.746 149.015 125.201 149.225 124.684C149.435 124.154 149.73 123.675 150.111 123.248C150.492 122.82 150.938 122.482 151.451 122.231C150.768 122.072 150.229 121.753 149.835 121.276C149.442 120.799 149.245 120.234 149.245 119.58C149.245 118.9 149.422 118.249 149.776 117.627C150.131 117.004 150.643 116.467 151.313 116.016C151.982 115.551 152.79 115.235 153.735 115.069C154.681 114.902 155.488 114.933 156.158 115.161C156.828 115.377 157.333 115.734 157.675 116.234C158.029 116.731 158.206 117.32 158.206 118C158.206 118.654 158.009 119.295 157.615 119.924C157.235 120.538 156.703 121.039 156.02 121.426C156.532 121.495 156.979 121.677 157.359 121.97C157.74 122.262 158.036 122.637 158.246 123.093C158.456 123.536 158.561 124.044 158.561 124.618C158.561 125.431 158.344 126.183 157.911 126.872C157.491 127.56 156.913 128.142 156.178 128.618C155.455 129.079 154.641 129.389 153.735 129.549ZM153.735 127.829C154.694 127.66 155.409 127.307 155.882 126.77C156.368 126.218 156.611 125.568 156.611 124.822C156.611 123.982 156.348 123.388 155.823 123.04C155.311 122.691 154.615 122.593 153.735 122.749C152.856 122.904 152.153 123.248 151.628 123.78C151.116 124.311 150.86 124.996 150.86 125.836C150.86 126.582 151.096 127.147 151.569 127.531C152.055 127.898 152.777 127.998 153.735 127.829ZM153.735 121.169C154.51 121.032 155.121 120.718 155.567 120.226C156.027 119.731 156.256 119.164 156.256 118.524C156.256 117.791 156.033 117.277 155.587 116.982C155.14 116.688 154.523 116.61 153.735 116.749C152.961 116.885 152.35 117.18 151.904 117.632C151.457 118.084 151.234 118.676 151.234 119.41C151.234 120.05 151.457 120.537 151.904 120.872C152.35 121.206 152.961 121.305 153.735 121.169Z" fill="#FF7700"/>
<path d="M54.5297 192.801L60.604 174.93L63.1803 174.476L69.2546 190.205L66.7256 190.651L61.8803 177.585L57.0114 192.364L54.5297 192.801ZM57.2714 188.166L57.9332 186.129L65.7092 184.758L66.371 186.561L57.2714 188.166ZM75.9284 189.316C74.7939 189.516 73.7934 189.421 72.9267 189.029C72.0601 188.622 71.3825 187.99 70.8941 187.132C70.4214 186.255 70.185 185.209 70.185 183.993C70.185 182.761 70.4214 181.631 70.8941 180.604C71.3825 179.574 72.0601 178.71 72.9267 178.013C73.8091 177.298 74.8176 176.84 75.952 176.64C76.8817 176.476 77.7011 176.524 78.4101 176.783C79.1192 177.025 79.6707 177.456 80.0646 178.075V171.019L82.4281 170.602V187.882L80.301 188.257L80.0646 186.427C79.8283 186.836 79.521 187.243 79.1428 187.645C78.7647 188.032 78.3077 188.377 77.772 188.679C77.2362 188.982 76.6217 189.194 75.9284 189.316ZM76.3066 187.161C77.0472 187.031 77.7011 186.74 78.2683 186.288C78.8356 185.835 79.2689 185.263 79.5683 184.57C79.8834 183.875 80.041 183.103 80.041 182.255C80.041 181.407 79.8834 180.699 79.5683 180.13C79.2689 179.543 78.8356 179.123 78.2683 178.872C77.7011 178.604 77.0472 178.535 76.3066 178.665C75.5975 178.79 74.9594 179.087 74.3921 179.555C73.8249 180.007 73.3837 180.581 73.0685 181.276C72.7534 181.956 72.5958 182.72 72.5958 183.568C72.5958 184.416 72.7534 185.132 73.0685 185.716C73.3837 186.301 73.8249 186.719 74.3921 186.971C74.9594 187.223 75.5975 187.286 76.3066 187.161ZM90.7181 186.708C89.5836 186.908 88.583 186.813 87.7164 186.422C86.8497 186.014 86.1722 185.382 85.6837 184.524C85.211 183.647 84.9747 182.601 84.9747 181.385C84.9747 180.153 85.211 179.023 85.6837 177.996C86.1722 176.966 86.8497 176.102 87.7164 175.406C88.5988 174.69 89.6072 174.232 90.7417 174.032C91.6714 173.868 92.4907 173.916 93.1998 174.175C93.9088 174.418 94.4603 174.848 94.8543 175.467V168.411L97.2178 167.994V185.274L95.0906 185.649L94.8543 183.819C94.6179 184.229 94.3107 184.635 93.9325 185.038C93.5543 185.424 93.0974 185.769 92.5616 186.071C92.0259 186.374 91.4114 186.586 90.7181 186.708ZM91.0962 184.554C91.8368 184.423 92.4907 184.132 93.058 183.68C93.6252 183.228 94.0585 182.655 94.3579 181.962C94.6731 181.267 94.8306 180.495 94.8306 179.647C94.8306 178.799 94.6731 178.091 94.3579 177.522C94.0585 176.935 93.6252 176.516 93.058 176.264C92.4907 175.996 91.8368 175.927 91.0962 176.058C90.3872 176.183 89.749 176.479 89.1818 176.947C88.6145 177.399 88.1733 177.973 87.8582 178.669C87.5431 179.348 87.3855 180.112 87.3855 180.96C87.3855 181.808 87.5431 182.524 87.8582 183.109C88.1733 183.693 88.6145 184.111 89.1818 184.363C89.749 184.615 90.3872 184.679 91.0962 184.554ZM109.404 183.125L104.937 171.817L107.419 171.379L110.799 180.576L114.202 170.183L116.637 169.754L112.193 182.634L109.404 183.125ZM121.83 181.222C120.853 181.395 120.041 181.37 119.395 181.148C118.749 180.926 118.269 180.562 117.954 180.058C117.638 179.538 117.481 178.949 117.481 178.293C117.481 177.493 117.686 176.777 118.095 176.145C118.505 175.497 119.088 174.954 119.844 174.517C120.601 174.079 121.507 173.767 122.563 173.581L125.659 173.035C125.659 172.331 125.556 171.765 125.351 171.337C125.147 170.91 124.839 170.62 124.43 170.468C124.036 170.297 123.532 170.266 122.917 170.375C122.208 170.5 121.601 170.783 121.097 171.224C120.593 171.649 120.278 172.208 120.152 172.902L117.788 173.319C117.883 172.454 118.166 171.684 118.639 171.009C119.127 170.315 119.75 169.741 120.506 169.288C121.263 168.818 122.066 168.509 122.917 168.359C124.036 168.161 124.973 168.196 125.73 168.463C126.486 168.729 127.053 169.197 127.431 169.867C127.825 170.517 128.022 171.347 128.022 172.355V179.843L125.966 180.205L125.777 178.198C125.604 178.549 125.399 178.889 125.162 179.219C124.926 179.549 124.642 179.847 124.312 180.113C123.996 180.376 123.626 180.602 123.201 180.789C122.791 180.989 122.334 181.134 121.83 181.222ZM122.279 179.199C122.783 179.11 123.24 178.926 123.65 178.646C124.059 178.365 124.406 178.024 124.69 177.622C124.989 177.201 125.21 176.754 125.351 176.281C125.509 175.79 125.596 175.302 125.611 174.82V174.748L122.799 175.244C122.121 175.363 121.57 175.548 121.144 175.799C120.735 176.032 120.435 176.308 120.246 176.63C120.057 176.951 119.963 177.304 119.963 177.688C119.963 178.088 120.049 178.416 120.223 178.674C120.412 178.913 120.68 179.081 121.026 179.18C121.373 179.279 121.79 179.285 122.279 179.199ZM130.803 179.352V162.072L133.166 161.656V178.936L130.803 179.352ZM136.341 178.376V166.28L138.704 165.863V177.959L136.341 178.376ZM137.546 163.787C137.089 163.868 136.711 163.791 136.412 163.555C136.128 163.317 135.986 162.974 135.986 162.526C135.986 162.094 136.128 161.717 136.412 161.395C136.711 161.055 137.089 160.844 137.546 160.763C137.987 160.685 138.358 160.764 138.657 160.999C138.956 161.219 139.106 161.544 139.106 161.976C139.106 162.424 138.956 162.819 138.657 163.159C138.358 163.5 137.987 163.709 137.546 163.787ZM147.142 176.759C146.008 176.959 145.007 176.864 144.14 176.473C143.274 176.065 142.596 175.433 142.108 174.575C141.635 173.698 141.399 172.652 141.399 171.436C141.399 170.204 141.635 169.074 142.108 168.047C142.596 167.017 143.274 166.153 144.14 165.457C145.023 164.741 146.031 164.283 147.166 164.083C148.095 163.919 148.915 163.967 149.624 164.226C150.333 164.469 150.884 164.899 151.278 165.518V158.462L153.642 158.045V175.325L151.515 175.7L151.278 173.87C151.042 174.28 150.735 174.686 150.356 175.088C149.978 175.475 149.521 175.82 148.986 176.122C148.45 176.425 147.835 176.637 147.142 176.759ZM147.52 174.605C148.261 174.474 148.915 174.183 149.482 173.731C150.049 173.279 150.482 172.706 150.782 172.013C151.097 171.318 151.255 170.546 151.255 169.698C151.255 168.85 151.097 168.142 150.782 167.573C150.482 166.986 150.049 166.567 149.482 166.315C148.915 166.047 148.261 165.978 147.52 166.109C146.811 166.234 146.173 166.53 145.606 166.998C145.038 167.45 144.597 168.024 144.282 168.72C143.967 169.399 143.809 170.163 143.809 171.011C143.809 171.859 143.967 172.575 144.282 173.16C144.597 173.744 145.038 174.162 145.606 174.414C146.173 174.666 146.811 174.73 147.52 174.605ZM160.584 174.389C159.608 174.561 158.796 174.536 158.15 174.314C157.504 174.092 157.023 173.729 156.708 173.224C156.393 172.704 156.236 172.116 156.236 171.46C156.236 170.66 156.44 169.944 156.85 169.311C157.26 168.663 157.843 168.12 158.599 167.683C159.355 167.246 160.261 166.934 161.317 166.748L164.413 166.202C164.413 165.498 164.311 164.932 164.106 164.504C163.901 164.076 163.594 163.786 163.184 163.635C162.79 163.464 162.286 163.433 161.672 163.541C160.963 163.666 160.356 163.949 159.852 164.39C159.348 164.815 159.032 165.375 158.906 166.069L156.543 166.486C156.637 165.621 156.921 164.851 157.394 164.176C157.882 163.481 158.505 162.908 159.261 162.454C160.017 161.985 160.821 161.675 161.672 161.525C162.79 161.328 163.728 161.363 164.484 161.629C165.241 161.896 165.808 162.364 166.186 163.033C166.58 163.684 166.777 164.513 166.777 165.521V173.009L164.721 173.372L164.532 171.365C164.358 171.716 164.153 172.056 163.917 172.385C163.681 172.715 163.397 173.013 163.066 173.279C162.751 173.543 162.381 173.768 161.955 173.955C161.546 174.155 161.089 174.3 160.584 174.389ZM161.034 172.366C161.538 172.277 161.995 172.092 162.404 171.812C162.814 171.532 163.161 171.191 163.444 170.789C163.744 170.368 163.964 169.921 164.106 169.448C164.264 168.956 164.35 168.469 164.366 167.986V167.914L161.554 168.41C160.876 168.53 160.324 168.715 159.899 168.966C159.489 169.198 159.19 169.475 159.001 169.796C158.812 170.118 158.717 170.47 158.717 170.854C158.717 171.254 158.804 171.583 158.977 171.84C159.166 172.079 159.434 172.248 159.781 172.347C160.128 172.446 160.545 172.452 161.034 172.366ZM174.22 171.697C173.463 171.83 172.809 171.825 172.258 171.683C171.706 171.54 171.281 171.215 170.982 170.708C170.682 170.2 170.533 169.467 170.533 168.507V162.291L168.476 162.653V160.613L170.533 160.251L170.816 157.177L172.896 156.81V159.834L176.276 159.238V161.278L172.896 161.874V168.114C172.896 168.802 173.038 169.249 173.322 169.455C173.605 169.645 174.094 169.679 174.787 169.557L176.158 169.315V171.355L174.22 171.697ZM178.811 170.887V158.791L181.175 158.374V170.47L178.811 170.887ZM180.017 156.299C179.56 156.379 179.182 156.302 178.882 156.067C178.599 155.829 178.457 155.486 178.457 155.038C178.457 154.606 178.599 154.229 178.882 153.907C179.182 153.566 179.56 153.355 180.017 153.275C180.458 153.197 180.828 153.275 181.128 153.511C181.427 153.73 181.577 154.055 181.577 154.487C181.577 154.935 181.427 155.33 181.128 155.671C180.828 156.011 180.458 156.221 180.017 156.299ZM189.755 169.245C188.636 169.443 187.627 169.357 186.729 168.987C185.847 168.615 185.146 168.002 184.626 167.15C184.121 166.279 183.869 165.219 183.869 163.971C183.869 162.691 184.129 161.533 184.649 160.498C185.169 159.446 185.878 158.577 186.777 157.891C187.675 157.204 188.683 156.762 189.802 156.565C190.936 156.365 191.945 156.451 192.827 156.824C193.71 157.196 194.403 157.81 194.907 158.665C195.427 159.517 195.687 160.583 195.687 161.863C195.687 163.143 195.427 164.301 194.907 165.337C194.403 166.37 193.702 167.23 192.804 167.916C191.905 168.602 190.889 169.045 189.755 169.245ZM189.755 167.181C190.401 167.068 190.984 166.805 191.504 166.393C192.039 165.979 192.465 165.432 192.78 164.752C193.111 164.054 193.276 163.233 193.276 162.289C193.276 161.345 193.119 160.588 192.804 160.02C192.488 159.435 192.063 159.03 191.527 158.805C191.007 158.577 190.432 158.518 189.802 158.629C189.172 158.74 188.589 159.003 188.053 159.418C187.517 159.832 187.084 160.388 186.753 161.087C186.438 161.766 186.28 162.578 186.28 163.522C186.28 164.466 186.438 165.23 186.753 165.815C187.084 166.38 187.509 166.777 188.029 167.006C188.565 167.231 189.14 167.29 189.755 167.181ZM198.231 167.463V155.367L200.358 154.992L200.5 157.031C200.878 156.244 201.414 155.582 202.107 155.043C202.801 154.489 203.596 154.133 204.494 153.974C205.44 153.808 206.251 153.857 206.929 154.121C207.606 154.386 208.134 154.877 208.512 155.594C208.891 156.295 209.08 157.23 209.08 158.398V165.55L206.716 165.967V159.055C206.716 157.935 206.472 157.13 205.983 156.64C205.495 156.15 204.786 155.987 203.856 156.151C203.242 156.259 202.69 156.509 202.202 156.899C201.713 157.273 201.319 157.774 201.02 158.403C200.736 159.029 200.595 159.758 200.595 160.59V167.046L198.231 167.463ZM217.678 164.034V151.938L219.805 151.563L219.97 153.238C220.348 152.547 220.853 151.97 221.483 151.507C222.113 151.044 222.822 150.743 223.61 150.604C224.209 150.498 224.752 150.49 225.241 150.58C225.729 150.654 226.163 150.826 226.541 151.095C226.919 151.364 227.226 151.726 227.463 152.181C227.888 151.402 228.455 150.75 229.164 150.224C229.889 149.697 230.653 149.362 231.457 149.22C232.418 149.051 233.245 149.105 233.939 149.383C234.632 149.644 235.16 150.135 235.522 150.855C235.885 151.56 236.066 152.488 236.066 153.64V160.792L233.726 161.204V154.292C233.726 153.172 233.498 152.364 233.041 151.869C232.599 151.371 231.945 151.198 231.079 151.351C230.496 151.454 229.976 151.697 229.519 152.082C229.062 152.467 228.7 152.97 228.432 153.594C228.18 154.214 228.054 154.94 228.054 155.772V162.204L225.69 162.621V155.709C225.69 154.589 225.461 153.781 225.005 153.286C224.563 152.788 223.909 152.615 223.043 152.768C222.491 152.865 221.987 153.106 221.53 153.491C221.073 153.875 220.711 154.379 220.443 155.002C220.175 155.626 220.041 156.353 220.041 157.185V163.617L217.678 164.034ZM239.049 160.265V148.169L241.413 147.753V159.849L239.049 160.265ZM240.255 145.677C239.798 145.758 239.42 145.68 239.12 145.445C238.837 145.207 238.695 144.864 238.695 144.416C238.695 143.984 238.837 143.607 239.12 143.285C239.42 142.944 239.798 142.734 240.255 142.653C240.696 142.575 241.066 142.654 241.366 142.889C241.665 143.108 241.815 143.434 241.815 143.866C241.815 144.314 241.665 144.708 241.366 145.049C241.066 145.39 240.696 145.599 240.255 145.677ZM249.851 158.649C248.716 158.849 247.716 158.753 246.849 158.362C245.982 157.955 245.305 157.322 244.816 156.465C244.344 155.588 244.107 154.542 244.107 153.326C244.107 152.094 244.344 150.964 244.816 149.937C245.305 148.906 245.982 148.043 246.849 147.346C247.731 146.631 248.74 146.173 249.874 145.973C250.804 145.809 251.623 145.856 252.332 146.115C253.041 146.358 253.593 146.789 253.987 147.408V140.352L256.35 139.935V157.215L254.223 157.59L253.987 155.76C253.751 156.169 253.443 156.575 253.065 156.978C252.687 157.365 252.23 157.709 251.694 158.012C251.159 158.314 250.544 158.527 249.851 158.649ZM250.229 156.494C250.969 156.364 251.623 156.072 252.191 155.62C252.758 155.168 253.191 154.596 253.491 153.903C253.806 153.208 253.963 152.436 253.963 151.588C253.963 150.74 253.806 150.032 253.491 149.463C253.191 148.876 252.758 148.456 252.191 148.204C251.623 147.936 250.969 147.868 250.229 147.998C249.52 148.123 248.882 148.42 248.314 148.888C247.747 149.34 247.306 149.914 246.991 150.609C246.676 151.289 246.518 152.053 246.518 152.901C246.518 153.749 246.676 154.465 246.991 155.049C247.306 155.634 247.747 156.052 248.314 156.304C248.882 156.556 249.52 156.619 250.229 156.494ZM264.64 156.041C263.506 156.241 262.505 156.146 261.639 155.754C260.772 155.347 260.094 154.715 259.606 153.857C259.133 152.98 258.897 151.934 258.897 150.718C258.897 149.486 259.133 148.356 259.606 147.329C260.094 146.299 260.772 145.435 261.639 144.738C262.521 144.023 263.529 143.565 264.664 143.365C265.594 143.201 266.413 143.249 267.122 143.508C267.831 143.75 268.383 144.181 268.777 144.8V137.744L271.14 137.327V154.607L269.013 154.982L268.777 153.152C268.54 153.561 268.233 153.968 267.855 154.37C267.477 154.757 267.02 155.102 266.484 155.404C265.948 155.707 265.334 155.919 264.64 156.041ZM265.019 153.886C265.759 153.756 266.413 153.465 266.98 153.013C267.547 152.56 267.981 151.988 268.28 151.295C268.595 150.6 268.753 149.828 268.753 148.98C268.753 148.132 268.595 147.424 268.28 146.855C267.981 146.268 267.547 145.848 266.98 145.597C266.413 145.329 265.759 145.26 265.019 145.39C264.309 145.515 263.671 145.812 263.104 146.28C262.537 146.732 262.096 147.306 261.78 148.001C261.465 148.681 261.308 149.445 261.308 150.293C261.308 151.141 261.465 151.857 261.78 152.441C262.096 153.026 262.537 153.444 263.104 153.696C263.671 153.948 264.309 154.011 265.019 153.886ZM274.136 154.079V136.799L276.499 136.382V153.662L274.136 154.079ZM284.897 152.469C283.762 152.669 282.754 152.583 281.872 152.211C280.989 151.838 280.296 151.225 279.792 150.37C279.303 149.512 279.059 148.459 279.059 147.211C279.059 145.931 279.303 144.776 279.792 143.746C280.296 142.697 280.989 141.83 281.872 141.147C282.754 140.447 283.778 139.995 284.944 139.789C286.11 139.583 287.111 139.671 287.946 140.052C288.781 140.432 289.427 141.023 289.884 141.822C290.341 142.605 290.569 143.525 290.569 144.581C290.569 144.741 290.562 144.918 290.546 145.113C290.546 145.289 290.538 145.491 290.522 145.717L280.784 147.434V145.73L288.206 144.422C288.159 143.422 287.828 142.697 287.213 142.245C286.599 141.777 285.835 141.624 284.921 141.785C284.275 141.899 283.684 142.155 283.148 142.554C282.612 142.936 282.179 143.445 281.848 144.079C281.533 144.694 281.375 145.434 281.375 146.298V146.97C281.375 147.866 281.533 148.598 281.848 149.167C282.179 149.717 282.612 150.104 283.148 150.33C283.684 150.539 284.267 150.588 284.897 150.477C285.653 150.344 286.276 150.066 286.764 149.644C287.253 149.222 287.615 148.702 287.851 148.084L290.215 147.668C290.01 148.44 289.663 149.165 289.175 149.843C288.687 150.505 288.08 151.068 287.355 151.532C286.646 151.993 285.827 152.305 284.897 152.469ZM294.908 150.416L291.41 138.937L293.75 138.524L296.35 148.146L295.901 148.201L298.784 137.637L301.432 137.17L304.315 146.717L303.866 146.821L306.442 136.286L308.829 135.865L305.331 148.578L302.897 149.007L299.872 139.053L300.344 138.97L297.319 149.991L294.908 150.416ZM314.189 147.304C313.212 147.477 312.4 147.452 311.754 147.23C311.108 147.008 310.628 146.644 310.312 146.14C309.997 145.619 309.84 145.031 309.84 144.375C309.84 143.575 310.045 142.859 310.454 142.227C310.864 141.579 311.447 141.036 312.203 140.598C312.96 140.161 313.866 139.849 314.921 139.663L318.018 139.117C318.018 138.413 317.915 137.847 317.71 137.419C317.505 136.992 317.198 136.702 316.789 136.55C316.395 136.379 315.89 136.348 315.276 136.457C314.567 136.582 313.96 136.865 313.456 137.306C312.952 137.731 312.637 138.29 312.51 138.984L310.147 139.401C310.242 138.536 310.525 137.766 310.998 137.091C311.486 136.397 312.109 135.823 312.865 135.37C313.621 134.9 314.425 134.591 315.276 134.441C316.395 134.243 317.332 134.278 318.088 134.545C318.845 134.811 319.412 135.279 319.79 135.949C320.184 136.599 320.381 137.429 320.381 138.437V145.925L318.325 146.287L318.136 144.28C317.962 144.631 317.758 144.971 317.521 145.301C317.285 145.63 317.001 145.928 316.67 146.195C316.355 146.458 315.985 146.684 315.559 146.871C315.15 147.071 314.693 147.216 314.189 147.304ZM314.638 145.281C315.142 145.192 315.599 145.008 316.009 144.728C316.418 144.447 316.765 144.106 317.048 143.704C317.348 143.283 317.568 142.836 317.71 142.363C317.868 141.872 317.955 141.384 317.97 140.902V140.83L315.158 141.326C314.48 141.445 313.929 141.63 313.503 141.881C313.094 142.114 312.794 142.39 312.605 142.712C312.416 143.033 312.321 143.386 312.321 143.77C312.321 144.17 312.408 144.498 312.581 144.756C312.77 144.994 313.038 145.163 313.385 145.262C313.732 145.361 314.149 145.367 314.638 145.281ZM323.162 145.434V133.338L325.289 132.963L325.501 135.206C325.769 134.614 326.116 134.097 326.541 133.654C326.967 133.195 327.463 132.812 328.03 132.504C328.613 132.193 329.275 131.972 330.016 131.842V134.386L329.165 134.536C328.676 134.622 328.212 134.768 327.77 134.974C327.329 135.163 326.935 135.433 326.589 135.782C326.258 136.128 325.998 136.566 325.809 137.095C325.62 137.625 325.525 138.257 325.525 138.993V145.017L323.162 145.434ZM336.993 143.283C335.858 143.483 334.85 143.397 333.967 143.025C333.085 142.652 332.392 142.039 331.887 141.184C331.399 140.326 331.155 139.273 331.155 138.025C331.155 136.745 331.399 135.59 331.887 134.56C332.392 133.511 333.085 132.644 333.967 131.961C334.85 131.261 335.874 130.809 337.04 130.603C338.206 130.398 339.207 130.485 340.042 130.866C340.877 131.247 341.523 131.837 341.98 132.636C342.437 133.42 342.665 134.339 342.665 135.395C342.665 135.555 342.657 135.733 342.642 135.927C342.642 136.103 342.634 136.305 342.618 136.532L332.88 138.249V136.545L340.302 135.236C340.254 134.236 339.923 133.511 339.309 133.059C338.694 132.591 337.93 132.438 337.016 132.599C336.37 132.713 335.779 132.969 335.244 133.368C334.708 133.75 334.275 134.259 333.944 134.893C333.629 135.509 333.471 136.248 333.471 137.112V137.784C333.471 138.68 333.629 139.413 333.944 139.981C334.275 140.531 334.708 140.918 335.244 141.144C335.779 141.353 336.362 141.403 336.993 141.291C337.749 141.158 338.371 140.88 338.86 140.458C339.348 140.036 339.711 139.516 339.947 138.898L342.311 138.482C342.106 139.254 341.759 139.979 341.271 140.657C340.782 141.319 340.176 141.882 339.451 142.346C338.742 142.807 337.922 143.12 336.993 143.283ZM354.813 140.141C353.836 140.314 353.024 140.289 352.378 140.067C351.732 139.844 351.252 139.481 350.937 138.977C350.622 138.456 350.464 137.868 350.464 137.212C350.464 136.412 350.669 135.696 351.078 135.064C351.488 134.415 352.071 133.873 352.827 133.435C353.584 132.998 354.49 132.686 355.546 132.5L358.642 131.954C358.642 131.25 358.539 130.684 358.335 130.256C358.13 129.828 357.822 129.539 357.413 129.387C357.019 129.216 356.515 129.185 355.9 129.294C355.191 129.419 354.584 129.702 354.08 130.142C353.576 130.567 353.261 131.127 353.135 131.821L350.771 132.238C350.866 131.373 351.149 130.603 351.622 129.928C352.111 129.234 352.733 128.66 353.489 128.207C354.246 127.737 355.049 127.428 355.9 127.278C357.019 127.08 357.956 127.115 358.713 127.382C359.469 127.648 360.036 128.116 360.414 128.786C360.808 129.436 361.005 130.265 361.005 131.273V138.761L358.949 139.124L358.76 137.117C358.587 137.468 358.382 137.808 358.145 138.138C357.909 138.467 357.625 138.765 357.295 139.032C356.979 139.295 356.609 139.521 356.184 139.708C355.774 139.908 355.317 140.052 354.813 140.141ZM355.262 138.118C355.766 138.029 356.223 137.845 356.633 137.564C357.042 137.284 357.389 136.943 357.673 136.541C357.972 136.12 358.193 135.673 358.335 135.2C358.492 134.709 358.579 134.221 358.595 133.738V133.666L355.782 134.162C355.104 134.282 354.553 134.467 354.127 134.718C353.718 134.95 353.418 135.227 353.229 135.548C353.04 135.87 352.946 136.222 352.946 136.606C352.946 137.006 353.032 137.335 353.206 137.593C353.395 137.831 353.663 138 354.009 138.099C354.356 138.198 354.773 138.204 355.262 138.118ZM363.786 138.271V120.991L366.149 120.574V137.854L363.786 138.271ZM369.158 137.324V120.044L371.522 119.627V136.907L369.158 137.324ZM380.342 135.352V123.256L382.469 122.881L382.682 125.123C382.949 124.532 383.296 124.015 383.722 123.572C384.147 123.113 384.643 122.729 385.211 122.421C385.794 122.111 386.455 121.89 387.196 121.759V124.303L386.345 124.453C385.857 124.539 385.392 124.685 384.951 124.891C384.509 125.081 384.115 125.35 383.769 125.7C383.438 126.046 383.178 126.484 382.989 127.013C382.8 127.542 382.705 128.175 382.705 128.911V134.935L380.342 135.352ZM394.22 133.193C393.101 133.39 392.093 133.304 391.195 132.934C390.312 132.562 389.611 131.949 389.091 131.097C388.587 130.226 388.335 129.166 388.335 127.918C388.335 126.638 388.595 125.481 389.115 124.445C389.635 123.393 390.344 122.524 391.242 121.838C392.14 121.151 393.149 120.71 394.267 120.512C395.402 120.312 396.41 120.399 397.293 120.771C398.175 121.143 398.868 121.757 399.373 122.612C399.893 123.464 400.153 124.531 400.153 125.811C400.153 127.091 399.893 128.248 399.373 129.284C398.868 130.317 398.167 131.177 397.269 131.863C396.371 132.549 395.355 132.993 394.22 133.193ZM394.22 131.129C394.866 131.015 395.449 130.752 395.969 130.34C396.505 129.926 396.93 129.379 397.245 128.699C397.576 128.001 397.742 127.18 397.742 126.236C397.742 125.292 397.584 124.536 397.269 123.967C396.954 123.383 396.528 122.978 395.993 122.752C395.473 122.524 394.898 122.465 394.267 122.576C393.637 122.688 393.054 122.95 392.518 123.365C391.983 123.779 391.549 124.336 391.218 125.034C390.903 125.714 390.746 126.525 390.746 127.469C390.746 128.413 390.903 129.178 391.218 129.762C391.549 130.328 391.975 130.725 392.495 130.953C393.03 131.178 393.606 131.237 394.22 131.129ZM407.069 130.927C406.139 131.091 405.328 131.042 404.635 130.78C403.957 130.516 403.429 130.033 403.051 129.332C402.689 128.627 402.507 127.691 402.507 126.523V119.347L404.871 118.931V125.843C404.871 126.979 405.115 127.792 405.604 128.281C406.092 128.771 406.793 128.936 407.707 128.775C408.322 128.666 408.873 128.417 409.362 128.027C409.866 127.634 410.26 127.124 410.543 126.498C410.827 125.872 410.969 125.143 410.969 124.311V117.855L413.332 117.439V129.535L411.229 129.906L411.063 127.871C410.701 128.671 410.173 129.34 409.48 129.878C408.787 130.416 407.983 130.766 407.069 130.927ZM421.248 128.139C420.492 128.272 419.838 128.268 419.286 128.125C418.735 127.982 418.31 127.657 418.01 127.15C417.711 126.643 417.561 125.909 417.561 124.949V118.733L415.505 119.096V117.056L417.561 116.693L417.845 113.619L419.925 113.252V116.276L423.304 115.68V117.72L419.925 118.316V124.556C419.925 125.244 420.066 125.691 420.35 125.897C420.634 126.087 421.122 126.121 421.815 125.999L423.186 125.757V127.797L421.248 128.139ZM430.74 126.753C429.606 126.953 428.597 126.867 427.715 126.495C426.833 126.122 426.139 125.508 425.635 124.653C425.147 123.796 424.902 122.743 424.902 121.495C424.902 120.215 425.147 119.06 425.635 118.029C426.139 116.98 426.833 116.114 427.715 115.431C428.597 114.731 429.621 114.278 430.788 114.073C431.954 113.867 432.954 113.955 433.789 114.336C434.624 114.716 435.27 115.306 435.727 116.106C436.184 116.889 436.413 117.809 436.413 118.865C436.413 119.025 436.405 119.202 436.389 119.397C436.389 119.573 436.381 119.775 436.365 120.001L426.628 121.718V120.014L434.049 118.706C434.002 117.706 433.671 116.98 433.057 116.529C432.442 116.061 431.678 115.908 430.764 116.069C430.118 116.183 429.527 116.439 428.991 116.838C428.455 117.22 428.022 117.728 427.691 118.363C427.376 118.978 427.219 119.718 427.219 120.582V121.254C427.219 122.15 427.376 122.882 427.691 123.451C428.022 124 428.455 124.388 428.991 124.614C429.527 124.823 430.11 124.872 430.74 124.761C431.497 124.628 432.119 124.35 432.607 123.928C433.096 123.506 433.458 122.986 433.695 122.368L436.058 121.952C435.853 122.724 435.507 123.449 435.018 124.127C434.53 124.789 433.923 125.352 433.198 125.816C432.489 126.277 431.67 126.589 430.74 126.753ZM443.411 124.519C442.403 124.697 441.52 124.684 440.764 124.482C440.008 124.279 439.409 123.913 438.968 123.382C438.527 122.852 438.259 122.188 438.164 121.388L440.575 120.963C440.654 121.333 440.803 121.659 441.024 121.94C441.26 122.218 441.576 122.419 441.969 122.541C442.379 122.661 442.86 122.672 443.411 122.575C443.931 122.483 444.357 122.336 444.688 122.134C445.034 121.913 445.286 121.66 445.444 121.377C445.601 121.077 445.68 120.775 445.68 120.471C445.68 120.023 445.57 119.706 445.349 119.521C445.144 119.317 444.829 119.189 444.404 119.136C443.994 119.064 443.498 119.024 442.915 119.014C442.363 119.016 441.828 118.982 441.308 118.914C440.803 118.827 440.346 118.691 439.937 118.508C439.543 118.321 439.228 118.057 438.991 117.714C438.755 117.356 438.637 116.889 438.637 116.313C438.637 115.625 438.818 114.977 439.18 114.369C439.543 113.745 440.055 113.223 440.717 112.802C441.394 112.363 442.19 112.062 443.104 111.901C444.428 111.668 445.491 111.8 446.295 112.299C447.098 112.797 447.571 113.617 447.713 114.76L445.42 115.165C445.357 114.632 445.121 114.258 444.711 114.042C444.301 113.81 443.758 113.754 443.08 113.873C442.403 113.993 441.883 114.22 441.52 114.556C441.158 114.892 440.977 115.284 440.977 115.732C440.977 116.02 441.079 116.258 441.284 116.446C441.489 116.634 441.788 116.773 442.182 116.864C442.592 116.935 443.088 116.984 443.671 117.009C444.506 117.022 445.255 117.09 445.917 117.213C446.578 117.337 447.106 117.595 447.5 117.99C447.894 118.385 448.091 119.014 448.091 119.878C448.107 120.627 447.918 121.324 447.524 121.97C447.146 122.613 446.602 123.156 445.893 123.601C445.2 124.044 444.372 124.35 443.411 124.519Z" fill="black"/>
<path d="M54.2815 242.543L58.078 231.373L59.6881 231.089L63.4846 240.92L61.904 241.199L58.8757 233.032L55.8326 242.269L54.2815 242.543ZM55.9951 239.645L56.4087 238.372L61.2688 237.516L61.6824 238.643L55.9951 239.645ZM67.3249 240.423C66.7438 240.525 66.2366 240.495 65.8033 240.331C65.3799 240.166 65.05 239.864 64.8136 239.425C64.5871 238.975 64.4738 238.385 64.4738 237.655V233.2L65.951 232.94V237.245C65.951 237.955 66.0988 238.464 66.3942 238.772C66.6995 239.078 67.1427 239.18 67.7237 239.077C68.1078 239.01 68.4525 238.854 68.7578 238.61C69.0729 238.364 69.3191 238.046 69.4964 237.655C69.6736 237.264 69.7623 236.808 69.7623 236.288V232.268L71.2395 232.007V239.552L69.9247 239.784L69.8213 238.512C69.5948 239.002 69.26 239.421 68.8168 239.77C68.3835 240.106 67.8862 240.324 67.3249 240.423ZM76.1425 242.168C75.463 242.288 74.8623 242.304 74.3403 242.216C73.8184 242.138 73.4146 241.944 73.129 241.634C72.8434 241.325 72.7006 240.91 72.7006 240.39C72.7006 240.12 72.7597 239.834 72.8779 239.534C72.9961 239.243 73.1881 238.949 73.454 238.652C73.7199 238.355 74.0794 238.067 74.5324 237.787L75.3448 238.319C74.8524 238.595 74.5176 238.879 74.3403 239.171C74.1729 239.47 74.0892 239.745 74.0892 239.995C74.0892 240.295 74.1778 240.529 74.3551 240.698C74.5324 240.867 74.7737 240.974 75.0789 241.02C75.3941 241.065 75.7486 241.052 76.1425 240.983C76.5266 240.915 76.8565 240.802 77.1323 240.643C77.4179 240.483 77.6394 240.289 77.797 240.061C77.9546 239.833 78.0334 239.584 78.0334 239.314C78.0334 238.994 77.9152 238.745 77.6788 238.567C77.4523 238.397 77.0042 238.351 76.3346 238.429C75.7732 238.488 75.2956 238.517 74.9017 238.517C74.5176 238.514 74.1877 238.488 73.912 238.436C73.6461 238.383 73.4195 238.313 73.2324 238.226C73.0552 238.137 72.9025 238.039 72.7745 237.932V237.587L74.2517 235.781L75.4335 235.993L73.8381 237.789L74.1483 237.059C74.2566 237.12 74.36 237.172 74.4585 237.215C74.557 237.257 74.6899 237.289 74.8574 237.309C75.0248 237.33 75.2513 237.335 75.5369 237.325C75.8225 237.314 76.1967 237.288 76.6596 237.247C77.3194 237.18 77.8561 237.206 78.2697 237.323C78.6833 237.44 78.9837 237.642 79.1708 237.929C79.3579 238.216 79.4515 238.579 79.4515 239.019C79.4515 239.449 79.3333 239.88 79.097 240.312C78.8606 240.744 78.4962 241.128 78.0038 241.465C77.5213 241.8 76.9008 242.034 76.1425 242.168ZM76.1278 236.365C75.5073 236.475 74.9755 236.449 74.5324 236.287C74.0991 236.123 73.7642 235.857 73.5279 235.489C73.3014 235.119 73.1881 234.684 73.1881 234.184C73.1881 233.684 73.3014 233.214 73.5279 232.774C73.7642 232.322 74.0991 231.938 74.5324 231.622C74.9755 231.294 75.5073 231.075 76.1278 230.965C76.758 230.854 77.2898 230.886 77.7232 231.059C78.1663 231.221 78.5012 231.487 78.7277 231.857C78.964 232.215 79.0822 232.645 79.0822 233.145C79.0822 233.645 78.964 234.12 78.7277 234.572C78.5012 235.022 78.1663 235.406 77.7232 235.724C77.2898 236.041 76.758 236.254 76.1278 236.365ZM76.1278 235.165C76.6103 235.08 76.9944 234.888 77.28 234.587C77.5754 234.275 77.7232 233.874 77.7232 233.384C77.7232 232.904 77.5754 232.565 77.28 232.367C76.9944 232.158 76.6103 232.095 76.1278 232.18C75.6551 232.264 75.271 232.462 74.9755 232.774C74.6801 233.076 74.5324 233.467 74.5324 233.947C74.5324 234.437 74.6801 234.786 74.9755 234.994C75.271 235.192 75.6551 235.249 76.1278 235.165ZM77.3539 232.114L76.9993 230.992L80.0424 230.455V231.49L77.3539 232.114ZM84.8757 237.148V236.068C85.5651 235.406 86.2151 234.747 86.8257 234.089C87.4461 233.43 87.9976 232.787 88.4801 232.162C88.9725 231.526 89.3566 230.923 89.6324 230.354C89.918 229.774 90.0608 229.244 90.0608 228.764C90.0608 228.424 90.0017 228.119 89.8835 227.85C89.7653 227.581 89.5733 227.38 89.3074 227.247C89.0513 227.102 88.7066 227.067 88.2733 227.144C87.8499 227.219 87.4953 227.376 87.2097 227.616C86.9241 227.857 86.7075 228.15 86.5598 228.496C86.4219 228.83 86.353 229.187 86.353 229.567L84.9348 229.818C84.9447 229.096 85.0973 228.459 85.3928 227.907C85.6882 227.355 86.0871 226.904 86.5893 226.556C87.0916 226.207 87.6628 225.977 88.3029 225.864C88.9528 225.749 89.5191 225.774 90.0017 225.939C90.4842 226.094 90.8585 226.383 91.1244 226.806C91.4001 227.218 91.538 227.758 91.538 228.428C91.538 228.908 91.4444 229.405 91.2573 229.918C91.0702 230.421 90.8141 230.926 90.4891 231.433C90.1642 231.94 89.8047 232.439 89.4108 232.928C89.0169 233.408 88.6131 233.869 88.1995 234.312C87.7859 234.755 87.387 235.16 87.0029 235.528L91.8482 234.674V235.919L84.8757 237.148ZM97.213 235.153C96.4547 235.286 95.8146 235.259 95.2926 235.071C94.7805 234.871 94.3669 234.559 94.0518 234.135C93.7366 233.701 93.5052 233.201 93.3575 232.637C93.2196 232.062 93.1507 231.459 93.1507 230.829C93.1507 229.669 93.3082 228.626 93.6234 227.701C93.9484 226.773 94.4112 226.012 95.012 225.416C95.6127 224.82 96.3365 224.447 97.1835 224.298C97.863 224.178 98.4391 224.211 98.9118 224.398C99.3944 224.573 99.7686 224.857 100.034 225.25C100.31 225.641 100.478 226.097 100.537 226.617L99.1629 226.859C99.0644 226.356 98.8429 225.995 98.4982 225.776C98.1535 225.547 97.7103 225.48 97.1687 225.575C96.6861 225.66 96.2528 225.892 95.8687 226.27C95.4847 226.637 95.1794 227.151 94.9529 227.811C94.7362 228.459 94.6131 229.266 94.5836 230.231C94.5836 230.241 94.5836 230.256 94.5836 230.276C94.5836 230.296 94.5836 230.316 94.5836 230.336C94.7313 230.01 94.943 229.698 95.2188 229.399C95.4945 229.101 95.8195 228.848 96.1937 228.642C96.5778 228.425 96.9914 228.277 97.4346 228.199C98.0156 228.096 98.5573 228.141 99.0595 228.332C99.5716 228.512 99.9852 228.829 100.3 229.283C100.616 229.738 100.773 230.305 100.773 230.985C100.773 231.595 100.625 232.196 100.33 232.788C100.044 233.378 99.6356 233.89 99.1038 234.324C98.572 234.748 97.9418 235.024 97.213 235.153ZM97.1096 233.866C97.5331 233.791 97.9122 233.629 98.247 233.38C98.5819 233.131 98.8429 232.83 99.03 232.477C99.2171 232.114 99.3106 231.723 99.3106 231.303C99.3106 230.873 99.2171 230.514 99.03 230.227C98.8429 229.93 98.5819 229.721 98.247 229.6C97.9122 229.479 97.5331 229.456 97.1096 229.531C96.6861 229.605 96.307 229.772 95.9721 230.031C95.6373 230.28 95.3714 230.587 95.1744 230.952C94.9775 231.307 94.879 231.689 94.879 232.099C94.879 232.519 94.9775 232.877 95.1744 233.172C95.3714 233.457 95.6373 233.665 95.9721 233.796C96.3168 233.916 96.696 233.939 97.1096 233.866Z" fill="black"/>
</g>
<defs>
<filter id="filter0_d_513_334" x="0.200001" y="-1.8" width="495.02" height="298.256" filterUnits="userSpaceOnUse" color-interpolation-filters="sRGB">
<feFlood flood-opacity="0" result="BackgroundImageFix"/>
<feColorMatrix in="SourceAlpha" type="matrix" values="0 0 0 0 0 0 0 0 0 0 0 0 0 0 0 0 0 0 127 0" result="hardAlpha"/>
<feOffset dx="-8" dy="-2"/>
<feGaussianBlur stdDeviation="9.4"/>
<feComposite in2="hardAlpha" operator="out"/>
<feColorMatrix type="matrix" values="0 0 0 0 0 0 0 0 0 0 0 0 0 0 0 0 0 0 0.11 0"/>
<feBlend mode="normal" in2="BackgroundImageFix" result="effect1_dropShadow_513_334"/>
<feBlend mode="normal" in="SourceGraphic" in2="effect1_dropShadow_513_334" result="shape"/>
</filter>
</defs>
</svg>
